<?xml version="1.0" encoding="UTF-8"?>
<!DOCTYPE svg PUBLIC "-//W3C//DTD SVG 1.1//EN" "http://www.w3.org/Graphics/SVG/1.1/DTD/svg11.dtd">
<!-- Creator: CorelDRAW 2018 (64-Bit) -->
<svg xmlns="http://www.w3.org/2000/svg" xml:space="preserve" width="42.3332mm" height="42.3332mm" version="1.1" style="shape-rendering:geometricPrecision; text-rendering:geometricPrecision; image-rendering:optimizeQuality; fill-rule:evenodd; clip-rule:evenodd"
viewBox="0 0 4233.32 4233.32"
 xmlns:xlink="http://www.w3.org/1999/xlink">
 <defs>
  <style type="text/css">
   <![CDATA[
    .fil4 {fill:black}
    .fil3 {fill:#378BC5}
    .fil2 {fill:#FFE807}
    .fil1 {fill:black;fill-rule:nonzero}
    .fil0 {fill:black;fill-rule:nonzero}
   ]]>
  </style>
 </defs>
 <g id="Warstwa_x0020_1">
  <metadata id="CorelCorpID_0Corel-Layer"/>
  <g id="_2694886379664">
   <path class="fil0" d="M1106.72 2282.19l-0.99 -345.72 -65.77 0 -127.34 214.84 -129.32 -214.84 -66.18 0 0 345.72 75.07 0 0 -202.99 101.17 166.44 36.05 0 101.66 -170.88 0.5 207.43 75.15 0zm215.41 -219.78l-28.15 -39.51 -27.16 20.25 0 -127.43 -77.05 0 0 185.71 -55.81 41.98 28.65 38.52 27.16 -20.25 0 120.51 77.05 0 0 -178.29 55.31 -41.49zm149.16 223.73c84.45,0 145.69,-56.8 145.69,-136.81 0,-80.01 -61.24,-136.8 -145.69,-136.8 -84.46,0 -146.2,56.79 -146.2,136.8 0,80.01 61.74,136.81 146.2,136.81zm0 -63.22c-38.53,0 -68.16,-27.65 -68.16,-73.59 0,-45.93 29.63,-73.59 68.16,-73.59 38.52,0 67.66,27.66 67.66,73.59 0,45.94 -29.14,73.59 -67.66,73.59zm390.66 -307.2l0 128.91c-19.26,-21.73 -46.91,-32.1 -79.51,-32.1 -75.07,0 -132.86,53.34 -132.86,136.8 0,83.47 57.79,136.81 132.86,136.81 35.56,0 63.71,-11.36 82.97,-34.57l0 30.62 73.59 0 0 -366.47 -77.05 0zm-66.18 307.2c-38.52,0 -68.15,-27.65 -68.15,-73.59 0,-45.93 29.63,-73.59 68.15,-73.59 38.03,0 67.67,27.66 67.67,73.59 0,45.94 -29.64,73.59 -67.67,73.59zm293.37 0l135.33 -160.02 0 -46.42 -229.17 0 0 59.26 131.87 0 -135.32 160.02 0 46.43 237.06 0 0 -59.27 -139.77 0zm227.68 -243.48c28.65,0 47.91,-18.77 47.91,-44.45 0,-23.71 -19.26,-41.49 -47.91,-41.49 -28.64,0 -47.9,18.77 -47.9,42.97 0,24.2 19.26,42.97 47.9,42.97zm-38.52 302.75l77.05 0 0 -265.71 -77.05 0 0 265.71zm408.94 -131.87c0,-85.44 -60.25,-137.79 -138.29,-137.79 -81,0 -141.75,57.29 -141.75,136.8 0,79.03 59.77,136.81 151.63,136.81 47.91,0 84.95,-14.82 109.64,-42.97l-40.99 -44.45c-18.27,17.29 -38.52,25.68 -66.68,25.68 -40.49,0 -68.65,-20.24 -76.05,-53.34l201.01 0c0.49,-6.42 1.48,-14.81 1.48,-20.74zm-137.8 -79.51c34.58,0 59.77,21.73 65.2,55.31l-130.88 0c5.43,-34.08 30.62,-55.31 65.68,-55.31zm286.96 -90.88c24.2,0 41.49,-17.78 41.49,-41.98 0,-23.71 -17.29,-41.49 -41.49,-41.49 -24.2,0 -41.49,17.78 -41.49,41.49 0,24.2 17.29,41.98 41.49,41.98zm-21.24 242.99l135.33 -160.02 0 -46.42 -229.17 0 0 59.26 131.87 0 -135.32 160.02 0 46.43 237.06 0 0 -59.27 -139.77 0zm312.15 63.22c84.45,0 145.69,-56.8 145.69,-136.81 0,-80.01 -61.24,-136.8 -145.69,-136.8 -84.46,0 -146.2,56.79 -146.2,136.8 0,80.01 61.74,136.81 146.2,136.81zm0 -63.22c-38.53,0 -68.16,-27.65 -68.16,-73.59 0,-45.93 29.63,-73.59 68.16,-73.59 38.52,0 67.66,27.66 67.66,73.59 0,45.94 -29.14,73.59 -67.66,73.59zm548.21 -206.44l-64.7 179.77 -63.21 -179.77 -65.2 0 -65.19 179.77 -62.72 -179.77 -72.61 0 95.82 265.71 74.08 0 61.74 -164.96 59.76 164.96 74.08 0 96.31 -265.71 -68.16 0zm357.09 133.84c0,-85.44 -60.25,-137.79 -138.29,-137.79 -81,0 -141.75,57.29 -141.75,136.8 0,79.03 59.77,136.81 151.63,136.81 47.91,0 84.95,-14.82 109.64,-42.97l-40.99 -44.45c-18.27,17.29 -38.52,25.68 -66.68,25.68 -40.49,0 -68.65,-20.24 -76.05,-53.34l201.01 0c0.49,-6.42 1.48,-14.81 1.48,-20.74zm-137.8 -79.51c34.58,0 59.77,21.73 65.2,55.31l-130.88 0c5.43,-34.08 30.62,-55.31 65.68,-55.31z"/>
   <path class="fil1" d="M734.97 2439.67l0 42.26 -13.61 0 0 -101.25 28.57 0c6.4,0 11.93,0.66 16.58,1.96 4.66,1.29 8.52,3.15 11.55,5.59 3.03,2.45 5.27,5.41 6.73,8.87 1.45,3.48 2.18,7.34 2.18,11.62 0,3.6 -0.56,6.94 -1.69,10.04 -1.13,3.1 -2.75,5.9 -4.89,8.37 -2.14,2.47 -4.75,4.59 -7.83,6.33 -3.08,1.74 -6.59,3.06 -10.49,3.95 1.69,0.99 3.2,2.42 4.51,4.3l29.5 40.22 -12.14 0c-2.49,0 -4.33,-0.96 -5.5,-2.89l-26.25 -36.2c-0.8,-1.13 -1.67,-1.93 -2.61,-2.42 -0.94,-0.49 -2.35,-0.75 -4.23,-0.75l-10.38 0zm0 -10.02l14.33 0c4,0 7.52,-0.47 10.56,-1.44 3.03,-0.96 5.57,-2.32 7.62,-4.09 2.04,-1.76 3.57,-3.85 4.61,-6.3 1.03,-2.45 1.55,-5.15 1.55,-8.09 0,-6.02 -1.98,-10.56 -5.95,-13.59 -3.98,-3.06 -9.9,-4.59 -17.76,-4.59l-14.96 0 0 38.1zm202.6 52.21l-5.57 0c-1.22,0 -2.21,-0.19 -2.96,-0.56 -0.76,-0.38 -1.25,-1.2 -1.48,-2.43l-1.42 -6.65c-1.88,1.69 -3.71,3.22 -5.5,4.56 -1.79,1.36 -3.67,2.49 -5.64,3.41 -1.98,0.92 -4.07,1.62 -6.31,2.09 -2.23,0.47 -4.72,0.71 -7.45,0.71 -2.78,0 -5.36,-0.4 -7.79,-1.18 -2.42,-0.77 -4.54,-1.95 -6.32,-3.5 -1.79,-1.55 -3.2,-3.53 -4.26,-5.93 -1.06,-2.37 -1.6,-5.2 -1.6,-8.46 0,-2.85 0.78,-5.58 2.33,-8.19 1.55,-2.63 4.07,-4.96 7.53,-7.01 3.45,-2.02 7.97,-3.69 13.57,-4.98 5.59,-1.3 12.44,-1.96 20.53,-1.96l0 -5.62c0,-5.57 -1.18,-9.8 -3.55,-12.65 -2.38,-2.87 -5.91,-4.3 -10.56,-4.3 -3.06,0 -5.63,0.37 -7.72,1.15 -2.09,0.78 -3.9,1.65 -5.43,2.61 -1.53,0.96 -2.85,1.83 -3.95,2.61 -1.11,0.78 -2.21,1.18 -3.29,1.18 -0.85,0 -1.58,-0.22 -2.22,-0.66 -0.63,-0.45 -1.15,-0.99 -1.52,-1.65l-2.26 -3.95c3.95,-3.83 8.21,-6.7 12.77,-8.61 4.56,-1.9 9.62,-2.84 15.17,-2.84 4,0 7.55,0.66 10.65,1.97 3.11,1.32 5.72,3.15 7.83,5.51 2.12,2.35 3.72,5.19 4.8,8.56 1.08,3.34 1.62,7.01 1.62,11l0 45.77zm-32.59 -7.76c2.21,0 4.23,-0.21 6.07,-0.66 1.83,-0.45 3.57,-1.06 5.19,-1.88 1.63,-0.8 3.18,-1.79 4.66,-2.96 1.48,-1.16 2.92,-2.47 4.33,-3.96l0 -14.81c-5.79,0 -10.7,0.37 -14.75,1.1 -4.04,0.73 -7.34,1.67 -9.88,2.87 -2.54,1.18 -4.37,2.57 -5.52,4.17 -1.16,1.59 -1.74,3.38 -1.74,5.38 0,1.88 0.3,3.51 0.91,4.87 0.61,1.36 1.44,2.49 2.47,3.36 1.04,0.87 2.26,1.51 3.67,1.91 1.41,0.4 2.94,0.61 4.59,0.61zm178.19 7.76c-1.79,0 -2.92,-0.87 -3.39,-2.61l-1.13 -8.68c-3.06,3.72 -6.54,6.68 -10.46,8.91 -3.93,2.24 -8.45,3.37 -13.53,3.37 -4.09,0 -7.81,-0.8 -11.15,-2.38 -3.33,-1.57 -6.18,-3.88 -8.53,-6.94 -2.35,-3.08 -4.17,-6.89 -5.44,-11.45 -1.27,-4.56 -1.9,-9.81 -1.9,-15.76 0,-5.26 0.71,-10.16 2.12,-14.72 1.41,-4.54 3.45,-8.47 6.11,-11.83 2.66,-3.34 5.88,-5.95 9.69,-7.85 3.81,-1.91 8.14,-2.87 12.98,-2.87 4.38,0 8.12,0.75 11.22,2.23 3.11,1.48 5.88,3.55 8.33,6.23l0 -39.65 12.56 0 0 104 -7.48 0zm-24.34 -9.17c4.09,0 7.69,-0.94 10.77,-2.82 3.08,-1.89 5.9,-4.54 8.49,-7.98l0 -34.62c-2.31,-3.1 -4.82,-5.29 -7.58,-6.53 -2.75,-1.25 -5.81,-1.89 -9.14,-1.89 -6.68,0 -11.81,2.38 -15.39,7.15 -3.57,4.75 -5.36,11.53 -5.36,20.35 0,4.65 0.4,8.65 1.2,11.97 0.8,3.31 1.98,6.04 3.53,8.18 1.55,2.14 3.46,3.72 5.71,4.71 2.26,0.98 4.85,1.48 7.77,1.48zm150.11 30.34c-0.43,0.94 -0.94,1.69 -1.58,2.25 -0.63,0.57 -1.62,0.85 -2.94,0.85l-9.31 0 13.05 -27.94 -29.49 -67.8 10.86 0c1.09,0 1.93,0.28 2.54,0.82 0.61,0.54 1.06,1.15 1.34,1.81l19.12 45.6c0.43,1.04 0.8,2.1 1.11,3.13 0.31,1.06 0.56,2.14 0.8,3.22 0.33,-1.08 0.66,-2.16 0.99,-3.22 0.33,-1.03 0.7,-2.11 1.13,-3.2l18.55 -45.53c0.28,-0.75 0.78,-1.39 1.46,-1.88 0.68,-0.49 1.41,-0.75 2.21,-0.75l10.02 0 -39.86 92.64zm252.78 -57.55c0.66,1.15 1.24,2.33 1.74,3.6 0.49,1.24 0.96,2.51 1.43,3.78 0.47,-1.32 0.97,-2.59 1.48,-3.78 0.52,-1.23 1.11,-2.43 1.77,-3.67l34.22 -62.4c0.61,-1.08 1.24,-1.74 1.9,-1.97 0.66,-0.24 1.6,-0.36 2.82,-0.36l10.09 0 0 101.18 -11.99 0 0 -74.29c0,-0.99 0.02,-2.05 0.07,-3.18 0.05,-1.13 0.12,-2.28 0.21,-3.46l-34.64 63.22c-1.18,2.12 -2.82,3.18 -4.94,3.18l-1.97 0c-2.12,0 -3.77,-1.06 -4.94,-3.18l-35.42 -63.43c0.14,1.22 0.26,2.42 0.33,3.6 0.07,1.18 0.09,2.26 0.09,3.25l0 74.29 -11.99 0 0 -101.18 10.09 0c1.22,0 2.16,0.12 2.82,0.36 0.66,0.23 1.29,0.89 1.9,1.97l34.93 62.47zm168.31 -35.16l0 71.54 -12.56 0 0 -71.54 12.56 0zm2.82 -22.44c0,1.22 -0.23,2.35 -0.73,3.41 -0.49,1.06 -1.15,2 -1.97,2.82 -0.82,0.83 -1.79,1.48 -2.87,1.96 -1.08,0.47 -2.23,0.7 -3.46,0.7 -1.22,0 -2.35,-0.23 -3.41,-0.7 -1.06,-0.48 -2,-1.13 -2.82,-1.96 -0.82,-0.82 -1.48,-1.76 -1.95,-2.82 -0.47,-1.06 -0.71,-2.19 -0.71,-3.41 0,-1.22 0.24,-2.4 0.71,-3.5 0.47,-1.11 1.13,-2.07 1.95,-2.9 0.82,-0.82 1.76,-1.45 2.82,-1.92 1.06,-0.48 2.19,-0.71 3.41,-0.71 1.23,0 2.38,0.23 3.46,0.71 1.08,0.47 2.05,1.1 2.87,1.92 0.82,0.83 1.48,1.79 1.97,2.9 0.5,1.1 0.73,2.28 0.73,3.5zm148.06 93.98l-5.57 0c-1.22,0 -2.21,-0.19 -2.96,-0.56 -0.76,-0.38 -1.25,-1.2 -1.48,-2.43l-1.42 -6.65c-1.88,1.69 -3.71,3.22 -5.5,4.56 -1.79,1.36 -3.67,2.49 -5.64,3.41 -1.98,0.92 -4.07,1.62 -6.31,2.09 -2.23,0.47 -4.72,0.71 -7.45,0.71 -2.78,0 -5.36,-0.4 -7.79,-1.18 -2.42,-0.77 -4.54,-1.95 -6.32,-3.5 -1.79,-1.55 -3.2,-3.53 -4.26,-5.93 -1.06,-2.37 -1.6,-5.2 -1.6,-8.46 0,-2.85 0.78,-5.58 2.33,-8.19 1.55,-2.63 4.07,-4.96 7.53,-7.01 3.45,-2.02 7.97,-3.69 13.57,-4.98 5.59,-1.3 12.44,-1.96 20.53,-1.96l0 -5.62c0,-5.57 -1.18,-9.8 -3.55,-12.65 -2.38,-2.87 -5.91,-4.3 -10.56,-4.3 -3.06,0 -5.63,0.37 -7.72,1.15 -2.09,0.78 -3.9,1.65 -5.43,2.61 -1.53,0.96 -2.85,1.83 -3.95,2.61 -1.11,0.78 -2.21,1.18 -3.29,1.18 -0.85,0 -1.58,-0.22 -2.22,-0.66 -0.63,-0.45 -1.15,-0.99 -1.52,-1.65l-2.26 -3.95c3.95,-3.83 8.21,-6.7 12.77,-8.61 4.56,-1.9 9.62,-2.84 15.17,-2.84 4,0 7.55,0.66 10.65,1.97 3.11,1.32 5.72,3.15 7.83,5.51 2.12,2.35 3.72,5.19 4.8,8.56 1.08,3.34 1.62,7.01 1.62,11l0 45.77zm-32.59 -7.76c2.21,0 4.23,-0.21 6.07,-0.66 1.83,-0.45 3.57,-1.06 5.19,-1.88 1.63,-0.8 3.18,-1.79 4.66,-2.96 1.48,-1.16 2.92,-2.47 4.33,-3.96l0 -14.81c-5.79,0 -10.7,0.37 -14.75,1.1 -4.04,0.73 -7.34,1.67 -9.88,2.87 -2.54,1.18 -4.37,2.57 -5.52,4.17 -1.16,1.59 -1.74,3.38 -1.74,5.38 0,1.88 0.3,3.51 0.91,4.87 0.61,1.36 1.44,2.49 2.47,3.36 1.04,0.87 2.26,1.51 3.67,1.91 1.41,0.4 2.94,0.61 4.59,0.61zm168.8 -51.93c-0.56,1.04 -1.43,1.55 -2.61,1.55 -0.7,0 -1.5,-0.26 -2.4,-0.77 -0.89,-0.52 -1.97,-1.11 -3.27,-1.74 -1.29,-0.64 -2.84,-1.23 -4.63,-1.77 -1.79,-0.54 -3.9,-0.8 -6.35,-0.8 -2.12,0 -4.02,0.26 -5.71,0.8 -1.7,0.54 -3.13,1.3 -4.33,2.24 -1.2,0.94 -2.12,2.02 -2.75,3.27 -0.64,1.24 -0.97,2.61 -0.97,4.06 0,1.84 0.54,3.37 1.6,4.59 1.06,1.22 2.45,2.28 4.19,3.18 1.74,0.89 3.71,1.67 5.93,2.35 2.21,0.68 4.49,1.41 6.82,2.18 2.32,0.78 4.58,1.65 6.79,2.59 2.21,0.94 4.19,2.12 5.93,3.53 1.74,1.41 3.15,3.13 4.21,5.17 1.06,2.05 1.57,4.52 1.57,7.39 0,3.29 -0.58,6.32 -1.76,9.12 -1.18,2.8 -2.92,5.22 -5.22,7.27 -2.31,2.05 -5.13,3.67 -8.47,4.85 -3.34,1.17 -7.19,1.76 -11.57,1.76 -4.98,0 -9.5,-0.8 -13.54,-2.4 -4.05,-1.6 -7.48,-3.65 -10.31,-6.14l2.97 -4.91c0.37,-0.62 0.82,-1.09 1.34,-1.44 0.52,-0.33 1.2,-0.49 2.04,-0.49 0.85,0 1.74,0.33 2.69,0.99 0.94,0.65 2.09,1.38 3.43,2.18 1.34,0.8 2.96,1.53 4.87,2.19 1.9,0.66 4.28,0.99 7.15,0.99 2.44,0 4.58,-0.33 6.42,-0.97 1.83,-0.63 3.36,-1.48 4.58,-2.56 1.23,-1.08 2.14,-2.33 2.73,-3.74 0.59,-1.41 0.87,-2.94 0.87,-4.54 0,-1.97 -0.52,-3.6 -1.57,-4.89 -1.06,-1.29 -2.47,-2.4 -4.21,-3.32 -1.74,-0.94 -3.72,-1.74 -5.95,-2.42 -2.24,-0.68 -4.52,-1.39 -6.85,-2.14 -2.33,-0.75 -4.61,-1.62 -6.84,-2.59 -2.24,-0.96 -4.23,-2.16 -5.98,-3.62 -1.74,-1.46 -3.12,-3.27 -4.18,-5.41 -1.06,-2.14 -1.6,-4.75 -1.6,-7.8 0,-2.73 0.56,-5.37 1.69,-7.88 1.13,-2.52 2.78,-4.73 4.94,-6.64 2.17,-1.9 4.82,-3.43 7.97,-4.56 3.16,-1.13 6.75,-1.69 10.8,-1.69 4.7,0 8.94,0.75 12.68,2.23 3.73,1.51 6.96,3.55 9.69,6.16l-2.83 4.59zm118.22 60.82c-5.64,0 -9.97,-1.58 -13,-4.73 -3.04,-3.15 -4.57,-7.69 -4.57,-13.64l0 -43.77 -8.6 0c-0.76,0 -1.39,-0.23 -1.91,-0.68 -0.52,-0.45 -0.78,-1.13 -0.78,-2.07l0 -5.03 11.72 -1.48 2.89 -22.09c0.09,-0.7 0.4,-1.29 0.92,-1.74 0.51,-0.44 1.17,-0.66 1.97,-0.66l6.35 0 0 24.63 20.46 0 0 9.12 -20.46 0 0 42.95c0,3.01 0.73,5.24 2.19,6.7 1.46,1.46 3.34,2.19 5.64,2.19 1.32,0 2.47,-0.19 3.44,-0.54 0.96,-0.36 1.78,-0.73 2.49,-1.16 0.71,-0.42 1.32,-0.82 1.81,-1.17 0.5,-0.35 0.92,-0.52 1.29,-0.52 0.66,0 1.25,0.4 1.77,1.22l3.67 6.07c-2.17,2 -4.78,3.55 -7.83,4.71 -3.06,1.12 -6.21,1.69 -9.46,1.69zm171.43 -72.67l9.88 0c1.03,0 1.88,0.26 2.54,0.77 0.65,0.52 1.1,1.13 1.34,1.84l13.68 46.05c0.38,1.69 0.73,3.34 1.06,4.91 0.33,1.58 0.61,3.15 0.85,4.78 0.37,-1.63 0.8,-3.2 1.27,-4.78 0.47,-1.57 0.96,-3.22 1.48,-4.91l15.1 -46.33c0.23,-0.71 0.66,-1.3 1.25,-1.77 0.58,-0.47 1.31,-0.7 2.21,-0.7l5.43 0c0.94,0 1.72,0.23 2.33,0.7 0.61,0.47 1.03,1.06 1.27,1.77l14.74 46.33c0.52,1.64 0.99,3.27 1.39,4.86 0.4,1.6 0.78,3.18 1.15,4.76 0.24,-1.58 0.54,-3.2 0.92,-4.9 0.38,-1.69 0.78,-3.27 1.2,-4.72l13.97 -46.05c0.23,-0.75 0.68,-1.37 1.34,-1.86 0.66,-0.49 1.43,-0.75 2.33,-0.75l9.45 0 -23.14 71.54 -9.95 0c-1.22,0 -2.07,-0.8 -2.54,-2.4l-15.8 -48.52c-0.38,-1.08 -0.68,-2.18 -0.92,-3.29 -0.23,-1.11 -0.47,-2.19 -0.7,-3.27 -0.24,1.08 -0.47,2.19 -0.71,3.32 -0.24,1.13 -0.54,2.23 -0.92,3.31l-16.01 48.45c-0.52,1.6 -1.48,2.4 -2.9,2.4l-9.45 0 -23.14 -71.54zm285.37 71.54l-13.68 0 0 -101.18 13.68 0 0 101.18zm101.36 0l0 -71.54 7.48 0c1.79,0 2.92,0.87 3.39,2.61l0.98 7.78c3.11,-3.45 6.59,-6.23 10.42,-8.35 3.84,-2.11 8.26,-3.17 13.29,-3.17 3.9,0 7.36,0.66 10.35,1.95 2.99,1.29 5.48,3.13 7.48,5.5 2,2.38 3.5,5.25 4.54,8.59 1.03,3.34 1.55,7.03 1.55,11.07l0 45.56 -12.56 0 0 -45.56c0,-5.4 -1.22,-9.61 -3.69,-12.6 -2.47,-2.99 -6.26,-4.49 -11.34,-4.49 -3.71,0 -7.17,0.89 -10.39,2.68 -3.23,1.79 -6.21,4.23 -8.94,7.29l0 52.68 -12.56 0zm176.36 1.13c-5.64,0 -9.97,-1.58 -13,-4.73 -3.04,-3.15 -4.57,-7.69 -4.57,-13.64l0 -43.77 -8.6 0c-0.76,0 -1.39,-0.23 -1.91,-0.68 -0.52,-0.45 -0.78,-1.13 -0.78,-2.07l0 -5.03 11.72 -1.48 2.89 -22.09c0.09,-0.7 0.4,-1.29 0.92,-1.74 0.51,-0.44 1.17,-0.66 1.97,-0.66l6.35 0 0 24.63 20.46 0 0 9.12 -20.46 0 0 42.95c0,3.01 0.73,5.24 2.19,6.7 1.46,1.46 3.34,2.19 5.64,2.19 1.32,0 2.47,-0.19 3.44,-0.54 0.96,-0.36 1.78,-0.73 2.49,-1.16 0.71,-0.42 1.32,-0.82 1.81,-1.17 0.5,-0.35 0.92,-0.52 1.29,-0.52 0.66,0 1.25,0.4 1.77,1.22l3.67 6.07c-2.17,2 -4.78,3.55 -7.83,4.71 -3.06,1.12 -6.21,1.69 -9.46,1.69zm135.5 -73.8c4.28,0 8.24,0.73 11.86,2.16 3.62,1.44 6.75,3.51 9.38,6.21 2.63,2.71 4.7,6.07 6.19,10.04 1.48,3.98 2.21,8.52 2.21,13.62 0,1.98 -0.21,3.29 -0.64,3.95 -0.42,0.66 -1.22,0.99 -2.4,0.99l-47.55 0c0.09,4.51 0.7,8.47 1.83,11.81 1.13,3.36 2.68,6.13 4.66,8.39 1.98,2.24 4.33,3.91 7.06,5.01 2.72,1.11 5.78,1.67 9.17,1.67 3.15,0 5.88,-0.38 8.16,-1.1 2.28,-0.73 4.23,-1.53 5.88,-2.38 1.64,-0.85 3.03,-1.62 4.14,-2.35 1.1,-0.75 2.04,-1.11 2.84,-1.11 1.04,0 1.84,0.4 2.4,1.2l3.53 4.61c-1.55,1.86 -3.41,3.48 -5.57,4.87 -2.17,1.39 -4.47,2.52 -6.94,3.41 -2.47,0.87 -5.04,1.55 -7.67,2 -2.63,0.45 -5.24,0.66 -7.83,0.66 -4.94,0 -9.48,-0.85 -13.64,-2.52 -4.16,-1.67 -7.76,-4.11 -10.8,-7.34 -3.03,-3.22 -5.41,-7.22 -7.1,-11.97 -1.69,-4.75 -2.54,-10.2 -2.54,-16.39 0,-4.99 0.78,-9.64 2.31,-13.97 1.52,-4.33 3.71,-8.09 6.58,-11.26 2.87,-3.18 6.37,-5.67 10.51,-7.48 4.14,-1.81 8.8,-2.73 13.97,-2.73zm0.29 9.31c-6.07,0 -10.85,1.74 -14.33,5.25 -3.48,3.48 -5.64,8.32 -6.49,14.51l38.88 0c0,-2.92 -0.4,-5.58 -1.2,-7.98 -0.8,-2.42 -1.98,-4.51 -3.53,-6.25 -1.55,-1.77 -3.43,-3.13 -5.67,-4.09 -2.23,-0.97 -4.79,-1.44 -7.66,-1.44zm121.6 63.36l0 -71.54 7.2 0c1.36,0 2.3,0.28 2.82,0.82 0.52,0.54 0.87,1.51 1.06,2.85l0.84 11.85c2.45,-5.29 5.48,-9.41 9.08,-12.35 3.6,-2.96 7.81,-4.44 12.66,-4.44 1.97,0 3.76,0.23 5.36,0.68 1.6,0.47 3.08,1.1 4.44,1.93l-1.62 9.38c-0.33,1.18 -1.06,1.77 -2.19,1.77 -0.66,0 -1.67,-0.24 -3.03,-0.69 -1.36,-0.44 -3.27,-0.66 -5.72,-0.66 -4.37,0 -8.02,1.32 -10.96,3.98 -2.94,2.66 -5.4,6.51 -7.38,11.57l0 44.85 -12.56 0zm133.11 0l0 -71.54 7.48 0c1.79,0 2.92,0.87 3.39,2.61l0.98 7.78c3.11,-3.45 6.59,-6.23 10.42,-8.35 3.84,-2.11 8.26,-3.17 13.29,-3.17 3.9,0 7.36,0.66 10.35,1.95 2.99,1.29 5.48,3.13 7.48,5.5 2,2.38 3.5,5.25 4.54,8.59 1.03,3.34 1.55,7.03 1.55,11.07l0 45.56 -12.56 0 0 -45.56c0,-5.4 -1.22,-9.61 -3.69,-12.6 -2.47,-2.99 -6.26,-4.49 -11.34,-4.49 -3.71,0 -7.17,0.89 -10.39,2.68 -3.23,1.79 -6.21,4.23 -8.94,7.29l0 52.68 -12.56 0zm182.99 -72.67c4.28,0 8.24,0.73 11.86,2.16 3.62,1.44 6.75,3.51 9.38,6.21 2.63,2.71 4.7,6.07 6.19,10.04 1.48,3.98 2.21,8.52 2.21,13.62 0,1.98 -0.21,3.29 -0.64,3.95 -0.42,0.66 -1.22,0.99 -2.4,0.99l-47.55 0c0.09,4.51 0.7,8.47 1.83,11.81 1.13,3.36 2.68,6.13 4.66,8.39 1.98,2.24 4.33,3.91 7.06,5.01 2.72,1.11 5.78,1.67 9.17,1.67 3.15,0 5.88,-0.38 8.16,-1.1 2.28,-0.73 4.23,-1.53 5.88,-2.38 1.64,-0.85 3.03,-1.62 4.14,-2.35 1.1,-0.75 2.04,-1.11 2.84,-1.11 1.04,0 1.84,0.4 2.4,1.2l3.53 4.61c-1.55,1.86 -3.41,3.48 -5.57,4.87 -2.17,1.39 -4.47,2.52 -6.94,3.41 -2.47,0.87 -5.04,1.55 -7.67,2 -2.63,0.45 -5.24,0.66 -7.83,0.66 -4.94,0 -9.48,-0.85 -13.64,-2.52 -4.16,-1.67 -7.76,-4.11 -10.8,-7.34 -3.03,-3.22 -5.41,-7.22 -7.1,-11.97 -1.69,-4.75 -2.54,-10.2 -2.54,-16.39 0,-4.99 0.78,-9.64 2.31,-13.97 1.52,-4.33 3.71,-8.09 6.58,-11.26 2.87,-3.18 6.37,-5.67 10.51,-7.48 4.14,-1.81 8.8,-2.73 13.97,-2.73zm0.29 9.31c-6.07,0 -10.85,1.74 -14.33,5.25 -3.48,3.48 -5.64,8.32 -6.49,14.51l38.88 0c0,-2.92 -0.4,-5.58 -1.2,-7.98 -0.8,-2.42 -1.98,-4.51 -3.53,-6.25 -1.55,-1.77 -3.43,-3.13 -5.67,-4.09 -2.23,-0.97 -4.79,-1.44 -7.66,-1.44zm170.35 4.52c-0.37,0.51 -0.75,0.91 -1.12,1.2 -0.38,0.28 -0.92,0.42 -1.63,0.42 -0.7,0 -1.46,-0.28 -2.28,-0.87 -0.82,-0.59 -1.88,-1.25 -3.15,-1.95 -1.27,-0.71 -2.8,-1.34 -4.61,-1.93 -1.81,-0.59 -4.04,-0.89 -6.68,-0.89 -3.48,0 -6.56,0.63 -9.24,1.88 -2.68,1.24 -4.92,3.03 -6.73,5.38 -1.81,2.35 -3.17,5.2 -4.09,8.54 -0.92,3.34 -1.39,7.08 -1.39,11.22 0,4.33 0.5,8.16 1.48,11.52 0.99,3.37 2.38,6.19 4.17,8.47 1.78,2.28 3.97,4.02 6.54,5.22 2.56,1.2 5.43,1.81 8.63,1.81 3.05,0 5.57,-0.38 7.55,-1.1 1.97,-0.73 3.62,-1.53 4.93,-2.43 1.32,-0.89 2.4,-1.71 3.25,-2.44 0.85,-0.73 1.69,-1.08 2.54,-1.08 1.08,0 1.88,0.39 2.4,1.19l3.53 4.59c-3.11,3.83 -6.99,6.63 -11.64,8.42 -4.66,1.76 -9.58,2.66 -14.75,2.66 -4.47,0 -8.61,-0.83 -12.44,-2.47 -3.84,-1.65 -7.18,-4.05 -10,-7.17 -2.82,-3.13 -5.03,-6.99 -6.65,-11.55 -1.63,-4.56 -2.45,-9.76 -2.45,-15.62 0,-5.31 0.75,-10.23 2.24,-14.74 1.48,-4.52 3.64,-8.42 6.49,-11.69 2.84,-3.27 6.35,-5.84 10.53,-7.67 4.19,-1.83 8.99,-2.75 14.4,-2.75 4.98,0 9.4,0.82 13.26,2.44 3.86,1.63 7.27,3.91 10.23,6.87l-3.32 4.52zm107.36 -12.7l0 71.54 -12.56 0 0 -71.54 12.56 0zm2.82 -22.44c0,1.22 -0.23,2.35 -0.73,3.41 -0.49,1.06 -1.15,2 -1.97,2.82 -0.82,0.83 -1.79,1.48 -2.87,1.96 -1.08,0.47 -2.23,0.7 -3.46,0.7 -1.22,0 -2.35,-0.23 -3.41,-0.7 -1.06,-0.48 -2,-1.13 -2.82,-1.96 -0.82,-0.82 -1.48,-1.76 -1.95,-2.82 -0.47,-1.06 -0.71,-2.19 -0.71,-3.41 0,-1.22 0.24,-2.4 0.71,-3.5 0.47,-1.11 1.13,-2.07 1.95,-2.9 0.82,-0.82 1.76,-1.45 2.82,-1.92 1.06,-0.48 2.19,-0.71 3.41,-0.71 1.23,0 2.38,0.23 3.46,0.71 1.08,0.47 2.05,1.1 2.87,1.92 0.82,0.83 1.48,1.79 1.97,2.9 0.5,1.1 0.73,2.28 0.73,3.5zm123.86 21.31c4.28,0 8.24,0.73 11.86,2.16 3.62,1.44 6.75,3.51 9.38,6.21 2.63,2.71 4.7,6.07 6.19,10.04 1.48,3.98 2.21,8.52 2.21,13.62 0,1.98 -0.21,3.29 -0.64,3.95 -0.42,0.66 -1.22,0.99 -2.4,0.99l-47.55 0c0.09,4.51 0.7,8.47 1.83,11.81 1.13,3.36 2.68,6.13 4.66,8.39 1.98,2.24 4.33,3.91 7.06,5.01 2.72,1.11 5.78,1.67 9.17,1.67 3.15,0 5.88,-0.38 8.16,-1.1 2.28,-0.73 4.23,-1.53 5.88,-2.38 1.64,-0.85 3.03,-1.62 4.14,-2.35 1.1,-0.75 2.04,-1.11 2.84,-1.11 1.04,0 1.84,0.4 2.4,1.2l3.53 4.61c-1.55,1.86 -3.41,3.48 -5.57,4.87 -2.17,1.39 -4.47,2.52 -6.94,3.41 -2.47,0.87 -5.04,1.55 -7.67,2 -2.63,0.45 -5.24,0.66 -7.83,0.66 -4.94,0 -9.48,-0.85 -13.64,-2.52 -4.16,-1.67 -7.76,-4.11 -10.8,-7.34 -3.03,-3.22 -5.41,-7.22 -7.1,-11.97 -1.69,-4.75 -2.54,-10.2 -2.54,-16.39 0,-4.99 0.78,-9.64 2.31,-13.97 1.52,-4.33 3.71,-8.09 6.58,-11.26 2.87,-3.18 6.37,-5.67 10.51,-7.48 4.14,-1.81 8.8,-2.73 13.97,-2.73zm0.29 9.31c-6.07,0 -10.85,1.74 -14.33,5.25 -3.48,3.48 -5.64,8.32 -6.49,14.51l38.88 0c0,-2.92 -0.4,-5.58 -1.2,-7.98 -0.8,-2.42 -1.98,-4.51 -3.53,-6.25 -1.55,-1.77 -3.43,-3.13 -5.67,-4.09 -2.23,-0.97 -4.79,-1.44 -7.66,-1.44z"/>
   <g>
    <path class="fil2" d="M644.32 2486.21l0 -157.48 -424.19 -0.01c1.44,82.26 60.42,145.49 134.89,155.71 27.23,3.74 257.15,1.87 289.3,1.78z"/>
    <path class="fil3" d="M644.32 2290.6l0 -157.48 -424.19 -0.01c1.08,36.66 14.86,80.31 39.98,104.82 16.21,15.83 18.98,19.79 40.26,32.14 42.58,24.73 77.4,20.54 125.49,20.54l218.46 -0.01z"/>
    <path class="fil4" d="M643.06 2093.73l1.26 -157.47 -424.19 -0.02c1.39,81.83 60.03,145.07 133.97,155.61 27.72,3.95 255.65,1.88 288.96,1.88z"/>
   </g>
  </g>
 </g>
</svg>
