<?xml version="1.0" encoding="UTF-8"?>
<svg xmlns="http://www.w3.org/2000/svg" xmlns:xlink="http://www.w3.org/1999/xlink" width="500pt" height="500pt" viewBox="0 0 500 500" version="1.1">
<g id="surface1">
<path style=" stroke:none;fill-rule:nonzero;fill:rgb(0%,0%,0%);fill-opacity:1;" d="M 130.714844 269.550781 L 130.597656 228.71875 L 122.828125 228.71875 L 107.789062 254.089844 L 92.515625 228.71875 L 84.699219 228.71875 L 84.699219 269.550781 L 93.566406 269.550781 L 93.566406 245.574219 L 105.515625 265.234375 L 109.773438 265.234375 L 121.78125 245.050781 L 121.839844 269.550781 Z M 156.15625 243.589844 L 152.832031 238.925781 L 149.625 241.316406 L 149.625 226.265625 L 140.523438 226.265625 L 140.523438 248.199219 L 133.933594 253.160156 L 137.316406 257.707031 L 140.523438 255.316406 L 140.523438 269.550781 L 149.625 269.550781 L 149.625 248.492188 Z M 173.773438 270.015625 C 183.75 270.015625 190.980469 263.308594 190.980469 253.859375 C 190.980469 244.40625 183.75 237.699219 173.773438 237.699219 C 163.796875 237.699219 156.507812 244.40625 156.507812 253.859375 C 156.507812 263.308594 163.796875 270.015625 173.773438 270.015625 Z M 173.773438 262.550781 C 169.222656 262.550781 165.722656 259.285156 165.722656 253.859375 C 165.722656 248.433594 169.222656 245.167969 173.773438 245.167969 C 178.324219 245.167969 181.765625 248.433594 181.765625 253.859375 C 181.765625 259.285156 178.324219 262.550781 173.773438 262.550781 Z M 219.914062 226.265625 L 219.914062 241.492188 C 217.640625 238.925781 214.375 237.699219 210.523438 237.699219 C 201.65625 237.699219 194.832031 244 194.832031 253.859375 C 194.832031 263.714844 201.65625 270.015625 210.523438 270.015625 C 214.722656 270.015625 218.050781 268.675781 220.324219 265.933594 L 220.324219 269.550781 L 229.015625 269.550781 L 229.015625 226.265625 Z M 212.097656 262.550781 C 207.550781 262.550781 204.050781 259.285156 204.050781 253.859375 C 204.050781 248.433594 207.550781 245.167969 212.097656 245.167969 C 216.589844 245.167969 220.089844 248.433594 220.089844 253.859375 C 220.089844 259.285156 216.589844 262.550781 212.097656 262.550781 Z M 246.75 262.550781 L 262.734375 243.648438 L 262.734375 238.167969 L 235.664062 238.167969 L 235.664062 245.167969 L 251.242188 245.167969 L 235.257812 264.066406 L 235.257812 269.550781 L 263.257812 269.550781 L 263.257812 262.550781 Z M 273.640625 233.792969 C 277.023438 233.792969 279.296875 231.574219 279.296875 228.542969 C 279.296875 225.742188 277.023438 223.640625 273.640625 223.640625 C 270.257812 223.640625 267.984375 225.859375 267.984375 228.71875 C 267.984375 231.574219 270.257812 233.792969 273.640625 233.792969 Z M 269.089844 269.550781 L 278.191406 269.550781 L 278.191406 238.167969 L 269.089844 238.167969 Z M 317.390625 253.976562 C 317.390625 243.882812 310.273438 237.699219 301.058594 237.699219 C 291.488281 237.699219 284.316406 244.46875 284.316406 253.859375 C 284.316406 263.191406 291.375 270.015625 302.222656 270.015625 C 307.882812 270.015625 312.257812 268.265625 315.171875 264.941406 L 310.332031 259.691406 C 308.175781 261.734375 305.78125 262.722656 302.457031 262.722656 C 297.675781 262.722656 294.347656 260.332031 293.472656 256.425781 L 317.214844 256.425781 C 317.273438 255.667969 317.390625 254.675781 317.390625 253.976562 Z M 301.113281 244.582031 C 305.199219 244.582031 308.175781 247.152344 308.816406 251.117188 L 293.359375 251.117188 C 294 247.089844 296.972656 244.582031 301.113281 244.582031 Z M 335.007812 233.851562 C 337.867188 233.851562 339.910156 231.75 339.910156 228.890625 C 339.910156 226.089844 337.867188 223.992188 335.007812 223.992188 C 332.148438 223.992188 330.109375 226.089844 330.109375 228.890625 C 330.109375 231.75 332.148438 233.851562 335.007812 233.851562 Z M 332.5 262.550781 L 348.484375 243.648438 L 348.484375 238.167969 L 321.414062 238.167969 L 321.414062 245.167969 L 336.992188 245.167969 L 321.007812 264.066406 L 321.007812 269.550781 L 349.007812 269.550781 L 349.007812 262.550781 Z M 369.367188 270.015625 C 379.339844 270.015625 386.574219 263.308594 386.574219 253.859375 C 386.574219 244.40625 379.339844 237.699219 369.367188 237.699219 C 359.390625 237.699219 352.097656 244.40625 352.097656 253.859375 C 352.097656 263.308594 359.390625 270.015625 369.367188 270.015625 Z M 369.367188 262.550781 C 364.816406 262.550781 361.316406 259.285156 361.316406 253.859375 C 361.316406 248.433594 364.816406 245.167969 369.367188 245.167969 C 373.917969 245.167969 377.359375 248.433594 377.359375 253.859375 C 377.359375 259.285156 373.917969 262.550781 369.367188 262.550781 Z M 434.117188 238.167969 L 426.476562 259.398438 L 419.007812 238.167969 L 411.308594 238.167969 L 403.609375 259.398438 L 396.199219 238.167969 L 387.625 238.167969 L 398.941406 269.550781 L 407.691406 269.550781 L 414.984375 250.066406 L 422.042969 269.550781 L 430.792969 269.550781 L 442.167969 238.167969 Z M 476.292969 253.976562 C 476.292969 243.882812 469.175781 237.699219 459.960938 237.699219 C 450.390625 237.699219 443.21875 244.46875 443.21875 253.859375 C 443.21875 263.191406 450.277344 270.015625 461.125 270.015625 C 466.785156 270.015625 471.160156 268.265625 474.074219 264.941406 L 469.234375 259.691406 C 467.078125 261.734375 464.683594 262.722656 461.359375 262.722656 C 456.578125 262.722656 453.25 260.332031 452.375 256.425781 L 476.117188 256.425781 C 476.175781 255.667969 476.292969 254.675781 476.292969 253.976562 Z M 460.015625 244.582031 C 464.101562 244.582031 467.078125 247.152344 467.71875 251.117188 L 452.257812 251.117188 C 452.902344 247.089844 455.875 244.582031 460.015625 244.582031 Z M 460.015625 244.582031 "/>
<path style=" stroke:none;fill-rule:nonzero;fill:rgb(0%,0%,0%);fill-opacity:1;" d="M 86.808594 288.148438 L 86.808594 293.140625 L 85.199219 293.140625 L 85.199219 281.183594 L 88.574219 281.183594 C 89.332031 281.183594 89.984375 281.261719 90.53125 281.414062 C 91.082031 281.566406 91.539062 281.785156 91.898438 282.074219 C 92.253906 282.363281 92.519531 282.714844 92.691406 283.121094 C 92.863281 283.53125 92.949219 283.988281 92.949219 284.496094 C 92.949219 284.917969 92.882812 285.3125 92.75 285.679688 C 92.617188 286.046875 92.425781 286.378906 92.171875 286.667969 C 91.917969 286.960938 91.609375 287.210938 91.246094 287.417969 C 90.882812 287.621094 90.46875 287.777344 90.007812 287.882812 C 90.207031 288 90.386719 288.167969 90.539062 288.390625 L 94.023438 293.140625 L 92.589844 293.140625 C 92.296875 293.140625 92.078125 293.027344 91.941406 292.800781 L 88.839844 288.523438 C 88.746094 288.390625 88.644531 288.296875 88.53125 288.238281 C 88.421875 288.179688 88.253906 288.148438 88.035156 288.148438 Z M 86.808594 286.964844 L 88.5 286.964844 C 88.972656 286.964844 89.386719 286.910156 89.746094 286.796875 C 90.105469 286.683594 90.40625 286.523438 90.648438 286.3125 C 90.886719 286.105469 91.070312 285.859375 91.191406 285.570312 C 91.3125 285.28125 91.375 284.960938 91.375 284.613281 C 91.375 283.902344 91.140625 283.367188 90.671875 283.007812 C 90.203125 282.648438 89.503906 282.464844 88.574219 282.464844 L 86.808594 282.464844 Z M 110.738281 293.132812 L 110.078125 293.132812 C 109.933594 293.132812 109.816406 293.109375 109.730469 293.066406 C 109.640625 293.023438 109.582031 292.925781 109.554688 292.78125 L 109.386719 291.996094 C 109.164062 292.195312 108.949219 292.375 108.738281 292.53125 C 108.527344 292.695312 108.304688 292.828125 108.070312 292.9375 C 107.835938 293.042969 107.589844 293.128906 107.324219 293.183594 C 107.0625 293.238281 106.769531 293.265625 106.445312 293.265625 C 106.117188 293.265625 105.8125 293.21875 105.527344 293.128906 C 105.238281 293.035156 104.988281 292.898438 104.777344 292.714844 C 104.566406 292.53125 104.402344 292.296875 104.277344 292.011719 C 104.152344 291.734375 104.085938 291.398438 104.085938 291.015625 C 104.085938 290.675781 104.179688 290.355469 104.363281 290.046875 C 104.546875 289.734375 104.84375 289.460938 105.25 289.21875 C 105.660156 288.980469 106.191406 288.78125 106.855469 288.628906 C 107.515625 288.476562 108.324219 288.398438 109.277344 288.398438 L 109.277344 287.734375 C 109.277344 287.078125 109.140625 286.578125 108.859375 286.242188 C 108.578125 285.902344 108.160156 285.734375 107.613281 285.734375 C 107.25 285.734375 106.949219 285.777344 106.699219 285.871094 C 106.453125 285.960938 106.238281 286.0625 106.058594 286.175781 C 105.878906 286.289062 105.722656 286.394531 105.59375 286.484375 C 105.460938 286.578125 105.332031 286.625 105.203125 286.625 C 105.105469 286.625 105.019531 286.597656 104.941406 286.546875 C 104.867188 286.492188 104.804688 286.429688 104.761719 286.351562 L 104.496094 285.886719 C 104.960938 285.433594 105.464844 285.09375 106.003906 284.867188 C 106.542969 284.644531 107.140625 284.535156 107.796875 284.535156 C 108.269531 284.535156 108.6875 284.613281 109.054688 284.765625 C 109.421875 284.921875 109.730469 285.136719 109.976562 285.417969 C 110.230469 285.695312 110.417969 286.03125 110.546875 286.429688 C 110.671875 286.824219 110.738281 287.257812 110.738281 287.726562 Z M 106.886719 292.214844 C 107.148438 292.214844 107.386719 292.191406 107.605469 292.136719 C 107.820312 292.085938 108.027344 292.011719 108.21875 291.917969 C 108.410156 291.820312 108.59375 291.707031 108.769531 291.566406 C 108.941406 291.429688 109.113281 291.273438 109.277344 291.097656 L 109.277344 289.351562 C 108.59375 289.351562 108.015625 289.394531 107.535156 289.480469 C 107.058594 289.566406 106.671875 289.675781 106.371094 289.820312 C 106.070312 289.957031 105.855469 290.121094 105.71875 290.3125 C 105.582031 290.5 105.511719 290.710938 105.511719 290.945312 C 105.511719 291.167969 105.546875 291.363281 105.621094 291.523438 C 105.691406 291.683594 105.789062 291.816406 105.910156 291.917969 C 106.035156 292.023438 106.179688 292.097656 106.34375 292.144531 C 106.511719 292.191406 106.691406 292.214844 106.886719 292.214844 Z M 127.933594 293.132812 C 127.722656 293.132812 127.589844 293.03125 127.53125 292.824219 L 127.398438 291.800781 C 127.039062 292.238281 126.628906 292.589844 126.164062 292.851562 C 125.699219 293.117188 125.167969 293.25 124.566406 293.25 C 124.082031 293.25 123.644531 293.15625 123.25 292.96875 C 122.855469 292.785156 122.519531 292.511719 122.242188 292.148438 C 121.964844 291.785156 121.75 291.335938 121.597656 290.796875 C 121.449219 290.257812 121.375 289.636719 121.375 288.933594 C 121.375 288.3125 121.457031 287.734375 121.625 287.195312 C 121.792969 286.660156 122.03125 286.195312 122.347656 285.800781 C 122.660156 285.40625 123.042969 285.097656 123.492188 284.871094 C 123.941406 284.648438 124.453125 284.535156 125.023438 284.535156 C 125.542969 284.535156 125.984375 284.621094 126.347656 284.796875 C 126.71875 284.972656 127.042969 285.214844 127.332031 285.53125 L 127.332031 280.847656 L 128.816406 280.847656 L 128.816406 293.132812 Z M 125.058594 292.050781 C 125.542969 292.050781 125.96875 291.9375 126.332031 291.71875 C 126.695312 291.492188 127.027344 291.179688 127.332031 290.773438 L 127.332031 286.683594 C 127.0625 286.320312 126.765625 286.0625 126.4375 285.914062 C 126.113281 285.765625 125.753906 285.691406 125.359375 285.691406 C 124.570312 285.691406 123.964844 285.972656 123.539062 286.535156 C 123.121094 287.097656 122.90625 287.898438 122.90625 288.9375 C 122.90625 289.488281 122.957031 289.960938 123.050781 290.351562 C 123.144531 290.742188 123.285156 291.066406 123.464844 291.320312 C 123.648438 291.570312 123.875 291.757812 124.140625 291.875 C 124.40625 291.992188 124.714844 292.050781 125.058594 292.050781 Z M 142.789062 295.632812 C 142.738281 295.746094 142.675781 295.832031 142.601562 295.898438 C 142.527344 295.964844 142.410156 296 142.253906 296 L 141.15625 296 L 142.695312 292.699219 L 139.214844 284.691406 L 140.496094 284.691406 C 140.625 284.691406 140.722656 284.726562 140.796875 284.789062 C 140.867188 284.851562 140.921875 284.925781 140.953125 285.003906 L 143.210938 290.386719 C 143.261719 290.511719 143.308594 290.636719 143.34375 290.757812 C 143.378906 290.882812 143.410156 291.011719 143.4375 291.136719 C 143.476562 291.011719 143.515625 290.882812 143.554688 290.757812 C 143.59375 290.636719 143.636719 290.507812 143.6875 290.378906 L 145.878906 285.003906 C 145.914062 284.914062 145.972656 284.839844 146.050781 284.78125 C 146.132812 284.722656 146.21875 284.691406 146.3125 284.691406 L 147.496094 284.691406 Z M 172.644531 288.835938 C 172.722656 288.972656 172.789062 289.113281 172.847656 289.261719 C 172.90625 289.40625 172.964844 289.558594 173.019531 289.707031 C 173.074219 289.550781 173.132812 289.402344 173.191406 289.261719 C 173.253906 289.117188 173.324219 288.972656 173.402344 288.828125 L 177.445312 281.457031 C 177.515625 281.332031 177.589844 281.253906 177.667969 281.226562 C 177.746094 281.195312 177.859375 281.183594 178 281.183594 L 179.191406 281.183594 L 179.191406 293.132812 L 177.777344 293.132812 L 177.777344 284.359375 C 177.777344 284.242188 177.78125 284.117188 177.785156 283.984375 C 177.792969 283.847656 177.800781 283.714844 177.808594 283.574219 L 173.71875 291.042969 C 173.578125 291.292969 173.386719 291.417969 173.136719 291.417969 L 172.902344 291.417969 C 172.652344 291.417969 172.457031 291.292969 172.320312 291.042969 L 168.136719 283.550781 C 168.152344 283.695312 168.167969 283.835938 168.175781 283.976562 C 168.183594 284.113281 168.183594 284.242188 168.183594 284.359375 L 168.183594 293.132812 L 166.769531 293.132812 L 166.769531 281.183594 L 167.960938 281.183594 C 168.105469 281.183594 168.214844 281.195312 168.292969 281.226562 C 168.371094 281.253906 168.445312 281.332031 168.519531 281.457031 Z M 192.523438 284.683594 L 192.523438 293.132812 L 191.039062 293.132812 L 191.039062 284.683594 Z M 192.855469 282.03125 C 192.855469 282.175781 192.828125 282.3125 192.769531 282.4375 C 192.710938 282.5625 192.632812 282.671875 192.539062 282.769531 C 192.441406 282.867188 192.324219 282.945312 192.199219 283 C 192.070312 283.054688 191.933594 283.082031 191.789062 283.082031 C 191.644531 283.082031 191.511719 283.054688 191.386719 283 C 191.261719 282.945312 191.152344 282.867188 191.054688 282.769531 C 190.957031 282.671875 190.878906 282.5625 190.824219 282.4375 C 190.769531 282.3125 190.738281 282.175781 190.738281 282.03125 C 190.738281 281.890625 190.769531 281.75 190.824219 281.621094 C 190.878906 281.488281 190.957031 281.375 191.054688 281.277344 C 191.152344 281.179688 191.261719 281.105469 191.386719 281.050781 C 191.511719 280.992188 191.644531 280.964844 191.789062 280.964844 C 191.933594 280.964844 192.070312 280.992188 192.199219 281.050781 C 192.324219 281.105469 192.441406 281.179688 192.539062 281.277344 C 192.632812 281.375 192.710938 281.488281 192.769531 281.621094 C 192.828125 281.75 192.855469 281.890625 192.855469 282.03125 Z M 210.34375 293.132812 L 209.6875 293.132812 C 209.542969 293.132812 209.425781 293.109375 209.335938 293.066406 C 209.246094 293.023438 209.1875 292.925781 209.160156 292.78125 L 208.992188 291.996094 C 208.773438 292.195312 208.554688 292.375 208.34375 292.53125 C 208.132812 292.695312 207.910156 292.828125 207.679688 292.9375 C 207.445312 293.042969 207.195312 293.128906 206.933594 293.183594 C 206.667969 293.238281 206.375 293.265625 206.054688 293.265625 C 205.722656 293.265625 205.417969 293.21875 205.132812 293.128906 C 204.847656 293.035156 204.597656 292.898438 204.386719 292.714844 C 204.175781 292.53125 204.007812 292.296875 203.882812 292.011719 C 203.757812 291.734375 203.695312 291.398438 203.695312 291.015625 C 203.695312 290.675781 203.785156 290.355469 203.96875 290.046875 C 204.152344 289.734375 204.449219 289.460938 204.859375 289.21875 C 205.265625 288.980469 205.800781 288.78125 206.460938 288.628906 C 207.121094 288.476562 207.929688 288.398438 208.886719 288.398438 L 208.886719 287.734375 C 208.886719 287.078125 208.746094 286.578125 208.46875 286.242188 C 208.1875 285.902344 207.769531 285.734375 207.21875 285.734375 C 206.859375 285.734375 206.554688 285.777344 206.308594 285.871094 C 206.0625 285.960938 205.847656 286.0625 205.667969 286.175781 C 205.484375 286.289062 205.328125 286.394531 205.199219 286.484375 C 205.070312 286.578125 204.9375 286.625 204.8125 286.625 C 204.710938 286.625 204.625 286.597656 204.550781 286.546875 C 204.476562 286.492188 204.414062 286.429688 204.371094 286.351562 L 204.101562 285.886719 C 204.570312 285.433594 205.074219 285.09375 205.609375 284.867188 C 206.148438 284.644531 206.746094 284.535156 207.402344 284.535156 C 207.875 284.535156 208.292969 284.613281 208.660156 284.765625 C 209.027344 284.921875 209.335938 285.136719 209.585938 285.417969 C 209.835938 285.695312 210.023438 286.03125 210.152344 286.429688 C 210.28125 286.824219 210.34375 287.257812 210.34375 287.726562 Z M 206.496094 292.214844 C 206.753906 292.214844 206.992188 292.191406 207.210938 292.136719 C 207.425781 292.085938 207.632812 292.011719 207.824219 291.917969 C 208.015625 291.820312 208.199219 291.707031 208.375 291.566406 C 208.550781 291.429688 208.71875 291.273438 208.886719 291.097656 L 208.886719 289.351562 C 208.203125 289.351562 207.621094 289.394531 207.144531 289.480469 C 206.667969 289.566406 206.277344 289.675781 205.976562 289.820312 C 205.675781 289.957031 205.460938 290.121094 205.324219 290.3125 C 205.1875 290.5 205.121094 290.710938 205.121094 290.945312 C 205.121094 291.167969 205.15625 291.363281 205.226562 291.523438 C 205.300781 291.683594 205.398438 291.816406 205.519531 291.917969 C 205.640625 292.023438 205.785156 292.097656 205.953125 292.144531 C 206.117188 292.191406 206.300781 292.214844 206.496094 292.214844 Z M 226.429688 286.082031 C 226.367188 286.207031 226.261719 286.265625 226.125 286.265625 C 226.039062 286.265625 225.945312 286.234375 225.839844 286.175781 C 225.734375 286.113281 225.605469 286.042969 225.453125 285.96875 C 225.300781 285.894531 225.117188 285.824219 224.90625 285.761719 C 224.695312 285.695312 224.445312 285.667969 224.15625 285.667969 C 223.90625 285.667969 223.683594 285.695312 223.480469 285.761719 C 223.28125 285.824219 223.113281 285.914062 222.972656 286.023438 C 222.828125 286.136719 222.71875 286.265625 222.644531 286.410156 C 222.570312 286.558594 222.53125 286.71875 222.53125 286.890625 C 222.53125 287.109375 222.59375 287.289062 222.71875 287.433594 C 222.84375 287.578125 223.011719 287.703125 223.214844 287.808594 C 223.421875 287.914062 223.652344 288.007812 223.914062 288.085938 C 224.175781 288.167969 224.445312 288.253906 224.722656 288.34375 C 224.996094 288.4375 225.261719 288.539062 225.523438 288.648438 C 225.785156 288.761719 226.019531 288.898438 226.222656 289.066406 C 226.429688 289.234375 226.59375 289.4375 226.722656 289.675781 C 226.847656 289.917969 226.90625 290.210938 226.90625 290.550781 C 226.90625 290.9375 226.835938 291.296875 226.699219 291.628906 C 226.558594 291.957031 226.355469 292.242188 226.082031 292.484375 C 225.808594 292.726562 225.476562 292.917969 225.082031 293.058594 C 224.6875 293.195312 224.230469 293.265625 223.714844 293.265625 C 223.125 293.265625 222.59375 293.171875 222.117188 292.984375 C 221.636719 292.792969 221.230469 292.550781 220.898438 292.257812 L 221.25 291.679688 C 221.292969 291.605469 221.34375 291.550781 221.40625 291.507812 C 221.46875 291.46875 221.546875 291.449219 221.648438 291.449219 C 221.75 291.449219 221.855469 291.488281 221.964844 291.566406 C 222.078125 291.644531 222.210938 291.730469 222.371094 291.824219 C 222.527344 291.917969 222.71875 292.003906 222.945312 292.082031 C 223.171875 292.160156 223.453125 292.199219 223.789062 292.199219 C 224.078125 292.199219 224.332031 292.160156 224.546875 292.085938 C 224.765625 292.011719 224.945312 291.910156 225.089844 291.78125 C 225.234375 291.65625 225.34375 291.507812 225.414062 291.339844 C 225.480469 291.175781 225.515625 290.992188 225.515625 290.804688 C 225.515625 290.574219 225.453125 290.378906 225.328125 290.226562 C 225.203125 290.074219 225.039062 289.945312 224.832031 289.835938 C 224.625 289.722656 224.394531 289.628906 224.128906 289.550781 C 223.863281 289.46875 223.59375 289.386719 223.320312 289.296875 C 223.046875 289.207031 222.777344 289.105469 222.511719 288.992188 C 222.246094 288.878906 222.011719 288.734375 221.804688 288.5625 C 221.601562 288.390625 221.4375 288.175781 221.3125 287.925781 C 221.1875 287.671875 221.125 287.363281 221.125 287.003906 C 221.125 286.679688 221.191406 286.367188 221.324219 286.074219 C 221.457031 285.773438 221.652344 285.515625 221.90625 285.289062 C 222.164062 285.0625 222.476562 284.882812 222.847656 284.75 C 223.222656 284.617188 223.644531 284.550781 224.125 284.550781 C 224.679688 284.550781 225.179688 284.636719 225.621094 284.8125 C 226.0625 284.992188 226.441406 285.234375 226.765625 285.539062 Z M 240.394531 293.265625 C 239.726562 293.265625 239.21875 293.078125 238.859375 292.707031 C 238.5 292.335938 238.320312 291.800781 238.320312 291.097656 L 238.320312 285.925781 L 237.304688 285.925781 C 237.214844 285.925781 237.140625 285.898438 237.078125 285.847656 C 237.015625 285.792969 236.984375 285.714844 236.984375 285.601562 L 236.984375 285.007812 L 238.371094 284.832031 L 238.710938 282.222656 C 238.722656 282.140625 238.757812 282.070312 238.820312 282.019531 C 238.878906 281.96875 238.957031 281.941406 239.054688 281.941406 L 239.804688 281.941406 L 239.804688 284.851562 L 242.21875 284.851562 L 242.21875 285.925781 L 239.804688 285.925781 L 239.804688 291 C 239.804688 291.355469 239.890625 291.617188 240.0625 291.792969 C 240.234375 291.964844 240.457031 292.050781 240.726562 292.050781 C 240.882812 292.050781 241.019531 292.027344 241.132812 291.984375 C 241.246094 291.945312 241.34375 291.898438 241.429688 291.847656 C 241.511719 291.800781 241.582031 291.753906 241.640625 291.710938 C 241.699219 291.667969 241.75 291.648438 241.792969 291.648438 C 241.871094 291.648438 241.941406 291.695312 242.003906 291.792969 L 242.4375 292.511719 C 242.179688 292.746094 241.871094 292.929688 241.511719 293.066406 C 241.152344 293.199219 240.777344 293.265625 240.394531 293.265625 Z M 260.640625 284.683594 L 261.808594 284.683594 C 261.929688 284.683594 262.03125 284.714844 262.109375 284.773438 C 262.1875 284.835938 262.238281 284.90625 262.265625 284.992188 L 263.882812 290.429688 C 263.929688 290.628906 263.96875 290.824219 264.007812 291.011719 C 264.046875 291.195312 264.082031 291.382812 264.109375 291.574219 C 264.152344 291.382812 264.203125 291.195312 264.257812 291.011719 C 264.3125 290.824219 264.371094 290.628906 264.433594 290.429688 L 266.21875 284.957031 C 266.242188 284.875 266.292969 284.804688 266.363281 284.75 C 266.433594 284.695312 266.519531 284.667969 266.625 284.667969 L 267.265625 284.667969 C 267.378906 284.667969 267.46875 284.695312 267.542969 284.75 C 267.613281 284.804688 267.664062 284.875 267.691406 284.957031 L 269.433594 290.429688 C 269.496094 290.625 269.550781 290.816406 269.597656 291.003906 C 269.644531 291.195312 269.6875 291.378906 269.734375 291.566406 C 269.761719 291.378906 269.796875 291.1875 269.839844 290.988281 C 269.886719 290.789062 269.933594 290.601562 269.984375 290.429688 L 271.632812 284.992188 C 271.660156 284.902344 271.714844 284.828125 271.792969 284.773438 C 271.871094 284.714844 271.960938 284.683594 272.066406 284.683594 L 273.183594 284.683594 L 270.449219 293.132812 L 269.273438 293.132812 C 269.128906 293.132812 269.03125 293.039062 268.976562 292.847656 L 267.109375 287.117188 C 267.0625 286.992188 267.027344 286.863281 267 286.730469 C 266.972656 286.597656 266.945312 286.472656 266.917969 286.34375 C 266.890625 286.472656 266.863281 286.601562 266.832031 286.734375 C 266.804688 286.871094 266.769531 287 266.726562 287.128906 L 264.832031 292.847656 C 264.773438 293.039062 264.660156 293.132812 264.492188 293.132812 L 263.375 293.132812 Z M 294.347656 293.132812 L 292.730469 293.132812 L 292.730469 281.183594 L 294.347656 281.183594 Z M 306.320312 293.132812 L 306.320312 284.683594 L 307.203125 284.683594 C 307.414062 284.683594 307.546875 284.785156 307.601562 284.992188 L 307.71875 285.910156 C 308.085938 285.503906 308.496094 285.175781 308.949219 284.925781 C 309.402344 284.675781 309.925781 284.550781 310.519531 284.550781 C 310.980469 284.550781 311.386719 284.628906 311.742188 284.78125 C 312.09375 284.933594 312.386719 285.148438 312.625 285.429688 C 312.859375 285.710938 313.039062 286.050781 313.160156 286.445312 C 313.28125 286.839844 313.34375 287.273438 313.34375 287.753906 L 313.34375 293.132812 L 311.859375 293.132812 L 311.859375 287.753906 C 311.859375 287.113281 311.714844 286.617188 311.425781 286.265625 C 311.132812 285.910156 310.683594 285.734375 310.085938 285.734375 C 309.648438 285.734375 309.238281 285.839844 308.859375 286.050781 C 308.476562 286.261719 308.125 286.550781 307.800781 286.910156 L 307.800781 293.132812 Z M 327.148438 293.265625 C 326.484375 293.265625 325.972656 293.078125 325.613281 292.707031 C 325.253906 292.335938 325.074219 291.800781 325.074219 291.097656 L 325.074219 285.925781 L 324.058594 285.925781 C 323.96875 285.925781 323.894531 285.898438 323.832031 285.847656 C 323.769531 285.792969 323.738281 285.714844 323.738281 285.601562 L 323.738281 285.007812 L 325.125 284.832031 L 325.464844 282.222656 C 325.476562 282.140625 325.511719 282.070312 325.574219 282.019531 C 325.632812 281.96875 325.710938 281.941406 325.808594 281.941406 L 326.558594 281.941406 L 326.558594 284.851562 L 328.972656 284.851562 L 328.972656 285.925781 L 326.558594 285.925781 L 326.558594 291 C 326.558594 291.355469 326.644531 291.617188 326.816406 291.792969 C 326.988281 291.964844 327.210938 292.050781 327.480469 292.050781 C 327.636719 292.050781 327.773438 292.027344 327.886719 291.984375 C 328 291.945312 328.097656 291.898438 328.183594 291.847656 C 328.265625 291.800781 328.339844 291.753906 328.394531 291.710938 C 328.457031 291.667969 328.503906 291.648438 328.546875 291.648438 C 328.625 291.648438 328.695312 291.695312 328.757812 291.792969 L 329.191406 292.511719 C 328.933594 292.746094 328.625 292.929688 328.265625 293.066406 C 327.90625 293.199219 327.53125 293.265625 327.148438 293.265625 Z M 343.152344 284.550781 C 343.660156 284.550781 344.125 284.636719 344.554688 284.804688 C 344.980469 284.976562 345.351562 285.21875 345.660156 285.539062 C 345.972656 285.859375 346.214844 286.253906 346.390625 286.722656 C 346.566406 287.195312 346.652344 287.730469 346.652344 288.332031 C 346.652344 288.566406 346.628906 288.722656 346.578125 288.800781 C 346.527344 288.878906 346.433594 288.917969 346.292969 288.917969 L 340.679688 288.917969 C 340.6875 289.449219 340.761719 289.917969 340.894531 290.3125 C 341.027344 290.707031 341.210938 291.035156 341.445312 291.300781 C 341.679688 291.566406 341.957031 291.765625 342.277344 291.894531 C 342.601562 292.023438 342.960938 292.089844 343.363281 292.089844 C 343.734375 292.089844 344.054688 292.046875 344.324219 291.960938 C 344.59375 291.875 344.824219 291.78125 345.019531 291.679688 C 345.214844 291.578125 345.378906 291.488281 345.507812 291.402344 C 345.640625 291.3125 345.75 291.273438 345.84375 291.273438 C 345.96875 291.273438 346.0625 291.320312 346.128906 291.414062 L 346.542969 291.957031 C 346.363281 292.175781 346.140625 292.367188 345.886719 292.53125 C 345.628906 292.695312 345.359375 292.832031 345.066406 292.9375 C 344.777344 293.039062 344.472656 293.117188 344.160156 293.171875 C 343.851562 293.226562 343.542969 293.25 343.238281 293.25 C 342.652344 293.25 342.117188 293.148438 341.625 292.953125 C 341.132812 292.753906 340.710938 292.46875 340.351562 292.085938 C 339.992188 291.707031 339.710938 291.234375 339.511719 290.671875 C 339.3125 290.109375 339.210938 289.46875 339.210938 288.734375 C 339.210938 288.144531 339.304688 287.597656 339.484375 287.085938 C 339.664062 286.574219 339.921875 286.128906 340.261719 285.757812 C 340.601562 285.378906 341.015625 285.085938 341.503906 284.871094 C 341.992188 284.660156 342.542969 284.550781 343.152344 284.550781 Z M 343.1875 285.648438 C 342.46875 285.648438 341.90625 285.855469 341.496094 286.269531 C 341.082031 286.679688 340.828125 287.253906 340.726562 287.984375 L 345.320312 287.984375 C 345.320312 287.636719 345.273438 287.324219 345.179688 287.039062 C 345.082031 286.753906 344.945312 286.507812 344.761719 286.304688 C 344.578125 286.09375 344.355469 285.933594 344.089844 285.820312 C 343.828125 285.707031 343.527344 285.648438 343.1875 285.648438 Z M 357.550781 293.132812 L 357.550781 284.683594 L 358.398438 284.683594 C 358.558594 284.683594 358.671875 284.714844 358.734375 284.78125 C 358.792969 284.84375 358.835938 284.957031 358.859375 285.117188 L 358.957031 286.515625 C 359.246094 285.890625 359.605469 285.40625 360.03125 285.058594 C 360.453125 284.707031 360.953125 284.535156 361.523438 284.535156 C 361.757812 284.535156 361.96875 284.5625 362.15625 284.613281 C 362.347656 284.667969 362.523438 284.742188 362.683594 284.839844 L 362.492188 285.949219 C 362.453125 286.089844 362.367188 286.160156 362.230469 286.160156 C 362.15625 286.160156 362.035156 286.128906 361.875 286.078125 C 361.714844 286.023438 361.488281 286 361.199219 286 C 360.683594 286 360.25 286.15625 359.90625 286.46875 C 359.558594 286.785156 359.265625 287.238281 359.03125 287.835938 L 359.03125 293.132812 Z M 373.269531 293.132812 L 373.269531 284.683594 L 374.15625 284.683594 C 374.367188 284.683594 374.5 284.785156 374.554688 284.992188 L 374.671875 285.910156 C 375.039062 285.503906 375.449219 285.175781 375.902344 284.925781 C 376.355469 284.675781 376.875 284.550781 377.472656 284.550781 C 377.929688 284.550781 378.339844 284.628906 378.691406 284.78125 C 379.046875 284.933594 379.339844 285.148438 379.578125 285.429688 C 379.8125 285.710938 379.988281 286.050781 380.113281 286.445312 C 380.234375 286.839844 380.296875 287.273438 380.296875 287.753906 L 380.296875 293.132812 L 378.8125 293.132812 L 378.8125 287.753906 C 378.8125 287.113281 378.667969 286.617188 378.375 286.265625 C 378.085938 285.910156 377.636719 285.734375 377.039062 285.734375 C 376.597656 285.734375 376.191406 285.839844 375.808594 286.050781 C 375.429688 286.261719 375.078125 286.550781 374.753906 286.910156 L 374.753906 293.132812 Z M 394.882812 284.550781 C 395.390625 284.550781 395.855469 284.636719 396.285156 284.804688 C 396.710938 284.976562 397.082031 285.21875 397.390625 285.539062 C 397.703125 285.859375 397.949219 286.253906 398.125 286.722656 C 398.296875 287.195312 398.382812 287.730469 398.382812 288.332031 C 398.382812 288.566406 398.359375 288.722656 398.308594 288.800781 C 398.257812 288.878906 398.164062 288.917969 398.027344 288.917969 L 392.410156 288.917969 C 392.421875 289.449219 392.492188 289.917969 392.625 290.3125 C 392.757812 290.707031 392.941406 291.035156 393.175781 291.300781 C 393.410156 291.566406 393.6875 291.765625 394.011719 291.894531 C 394.332031 292.023438 394.691406 292.089844 395.09375 292.089844 C 395.464844 292.089844 395.789062 292.046875 396.058594 291.960938 C 396.324219 291.875 396.554688 291.78125 396.75 291.679688 C 396.945312 291.578125 397.109375 291.488281 397.238281 291.402344 C 397.371094 291.3125 397.480469 291.273438 397.574219 291.273438 C 397.699219 291.273438 397.792969 291.320312 397.859375 291.414062 L 398.277344 291.957031 C 398.09375 292.175781 397.875 292.367188 397.617188 292.53125 C 397.363281 292.695312 397.089844 292.832031 396.796875 292.9375 C 396.507812 293.039062 396.203125 293.117188 395.890625 293.171875 C 395.582031 293.226562 395.273438 293.25 394.96875 293.25 C 394.382812 293.25 393.847656 293.148438 393.355469 292.953125 C 392.867188 292.753906 392.441406 292.46875 392.082031 292.085938 C 391.722656 291.707031 391.441406 291.234375 391.242188 290.671875 C 391.042969 290.109375 390.941406 289.46875 390.941406 288.734375 C 390.941406 288.144531 391.035156 287.597656 391.214844 287.085938 C 391.394531 286.574219 391.652344 286.128906 391.992188 285.757812 C 392.332031 285.378906 392.746094 285.085938 393.234375 284.871094 C 393.722656 284.660156 394.273438 284.550781 394.882812 284.550781 Z M 394.917969 285.648438 C 394.203125 285.648438 393.636719 285.855469 393.226562 286.269531 C 392.816406 286.679688 392.558594 287.253906 392.460938 287.984375 L 397.050781 287.984375 C 397.050781 287.636719 397.003906 287.324219 396.910156 287.039062 C 396.816406 286.753906 396.675781 286.507812 396.492188 286.304688 C 396.308594 286.09375 396.085938 285.933594 395.824219 285.820312 C 395.558594 285.707031 395.257812 285.648438 394.917969 285.648438 Z M 415.039062 286.183594 C 414.996094 286.242188 414.949219 286.289062 414.90625 286.324219 C 414.859375 286.359375 414.796875 286.375 414.714844 286.375 C 414.628906 286.375 414.539062 286.339844 414.445312 286.273438 C 414.347656 286.203125 414.222656 286.125 414.070312 286.042969 C 413.921875 285.957031 413.742188 285.882812 413.527344 285.8125 C 413.3125 285.742188 413.050781 285.707031 412.738281 285.707031 C 412.328125 285.707031 411.964844 285.78125 411.648438 285.929688 C 411.332031 286.078125 411.066406 286.289062 410.851562 286.566406 C 410.636719 286.84375 410.476562 287.179688 410.371094 287.574219 C 410.261719 287.96875 410.207031 288.410156 410.207031 288.898438 C 410.207031 289.410156 410.265625 289.863281 410.378906 290.261719 C 410.496094 290.660156 410.660156 290.992188 410.871094 291.261719 C 411.082031 291.53125 411.339844 291.734375 411.644531 291.878906 C 411.945312 292.019531 412.285156 292.089844 412.664062 292.089844 C 413.023438 292.089844 413.320312 292.046875 413.554688 291.960938 C 413.789062 291.875 413.984375 291.78125 414.136719 291.675781 C 414.292969 291.570312 414.421875 291.472656 414.523438 291.386719 C 414.621094 291.300781 414.722656 291.257812 414.820312 291.257812 C 414.949219 291.257812 415.042969 291.304688 415.105469 291.398438 L 415.523438 291.941406 C 415.15625 292.394531 414.695312 292.722656 414.148438 292.9375 C 413.597656 293.144531 413.015625 293.25 412.40625 293.25 C 411.878906 293.25 411.386719 293.152344 410.9375 292.957031 C 410.484375 292.761719 410.089844 292.480469 409.753906 292.113281 C 409.421875 291.742188 409.160156 291.285156 408.96875 290.746094 C 408.777344 290.207031 408.679688 289.59375 408.679688 288.902344 C 408.679688 288.273438 408.769531 287.695312 408.945312 287.160156 C 409.121094 286.628906 409.375 286.167969 409.710938 285.78125 C 410.046875 285.394531 410.460938 285.089844 410.957031 284.875 C 411.449219 284.660156 412.015625 284.550781 412.65625 284.550781 C 413.242188 284.550781 413.765625 284.648438 414.222656 284.839844 C 414.679688 285.03125 415.082031 285.300781 415.429688 285.648438 Z M 427.71875 284.683594 L 427.71875 293.132812 L 426.234375 293.132812 L 426.234375 284.683594 Z M 428.050781 282.03125 C 428.050781 282.175781 428.023438 282.3125 427.964844 282.4375 C 427.90625 282.5625 427.828125 282.671875 427.734375 282.769531 C 427.636719 282.867188 427.519531 282.945312 427.394531 283 C 427.265625 283.054688 427.128906 283.082031 426.984375 283.082031 C 426.839844 283.082031 426.707031 283.054688 426.582031 283 C 426.457031 282.945312 426.347656 282.867188 426.25 282.769531 C 426.152344 282.671875 426.074219 282.5625 426.019531 282.4375 C 425.964844 282.3125 425.933594 282.175781 425.933594 282.03125 C 425.933594 281.890625 425.964844 281.75 426.019531 281.621094 C 426.074219 281.488281 426.152344 281.375 426.25 281.277344 C 426.347656 281.179688 426.457031 281.105469 426.582031 281.050781 C 426.707031 280.992188 426.839844 280.964844 426.984375 280.964844 C 427.128906 280.964844 427.265625 280.992188 427.394531 281.050781 C 427.519531 281.105469 427.636719 281.179688 427.734375 281.277344 C 427.828125 281.375 427.90625 281.488281 427.964844 281.621094 C 428.023438 281.75 428.050781 281.890625 428.050781 282.03125 Z M 442.679688 284.550781 C 443.1875 284.550781 443.652344 284.636719 444.082031 284.804688 C 444.507812 284.976562 444.878906 285.21875 445.1875 285.539062 C 445.5 285.859375 445.746094 286.253906 445.921875 286.722656 C 446.09375 287.195312 446.179688 287.730469 446.179688 288.332031 C 446.179688 288.566406 446.15625 288.722656 446.105469 288.800781 C 446.054688 288.878906 445.960938 288.917969 445.824219 288.917969 L 440.207031 288.917969 C 440.21875 289.449219 440.289062 289.917969 440.421875 290.3125 C 440.554688 290.707031 440.738281 291.035156 440.972656 291.300781 C 441.207031 291.566406 441.484375 291.765625 441.808594 291.894531 C 442.128906 292.023438 442.488281 292.089844 442.890625 292.089844 C 443.261719 292.089844 443.585938 292.046875 443.855469 291.960938 C 444.121094 291.875 444.351562 291.78125 444.546875 291.679688 C 444.742188 291.578125 444.90625 291.488281 445.035156 291.402344 C 445.167969 291.3125 445.277344 291.273438 445.371094 291.273438 C 445.496094 291.273438 445.589844 291.320312 445.65625 291.414062 L 446.074219 291.957031 C 445.890625 292.175781 445.671875 292.367188 445.414062 292.53125 C 445.160156 292.695312 444.886719 292.832031 444.59375 292.9375 C 444.304688 293.039062 444 293.117188 443.6875 293.171875 C 443.378906 293.226562 443.070312 293.25 442.765625 293.25 C 442.179688 293.25 441.644531 293.148438 441.152344 292.953125 C 440.664062 292.753906 440.238281 292.46875 439.878906 292.085938 C 439.519531 291.707031 439.238281 291.234375 439.039062 290.671875 C 438.839844 290.109375 438.738281 289.46875 438.738281 288.734375 C 438.738281 288.144531 438.832031 287.597656 439.011719 287.085938 C 439.191406 286.574219 439.449219 286.128906 439.789062 285.757812 C 440.128906 285.378906 440.542969 285.085938 441.03125 284.871094 C 441.519531 284.660156 442.070312 284.550781 442.679688 284.550781 Z M 442.714844 285.648438 C 441.996094 285.648438 441.433594 285.855469 441.023438 286.269531 C 440.613281 286.679688 440.355469 287.253906 440.257812 287.984375 L 444.847656 287.984375 C 444.847656 287.636719 444.800781 287.324219 444.707031 287.039062 C 444.613281 286.753906 444.472656 286.507812 444.289062 286.304688 C 444.105469 286.09375 443.882812 285.933594 443.621094 285.820312 C 443.355469 285.707031 443.054688 285.648438 442.714844 285.648438 Z M 442.714844 285.648438 "/>
<path style=" stroke:none;fill-rule:evenodd;fill:rgb(100%,90.980392%,2.745098%);fill-opacity:1;" d="M 76.101562 293.648438 L 76.101562 275.046875 L 26 275.046875 C 26.167969 284.761719 33.136719 292.230469 41.929688 293.4375 C 45.148438 293.878906 72.304688 293.65625 76.101562 293.648438 Z M 76.101562 293.648438 "/>
<path style=" stroke:none;fill-rule:evenodd;fill:rgb(21.568627%,54.509804%,77.254902%);fill-opacity:1;" d="M 76.101562 270.542969 L 76.101562 251.941406 L 26 251.941406 C 26.128906 256.273438 27.753906 261.425781 30.722656 264.324219 C 32.636719 266.191406 32.964844 266.660156 35.476562 268.117188 C 40.507812 271.039062 44.617188 270.542969 50.296875 270.542969 Z M 76.101562 270.542969 "/>
<path style=" stroke:none;fill-rule:evenodd;fill:rgb(0%,0%,0%);fill-opacity:1;" d="M 75.953125 247.289062 L 76.101562 228.691406 L 26 228.691406 C 26.164062 238.355469 33.089844 245.824219 41.824219 247.070312 C 45.097656 247.535156 72.019531 247.289062 75.953125 247.289062 Z M 75.953125 247.289062 "/>
</g>
</svg>
