<?xml version="1.0" encoding="UTF-8"?>
<svg xmlns="http://www.w3.org/2000/svg" xmlns:xlink="http://www.w3.org/1999/xlink" width="1024pt" height="1024pt" viewBox="0 0 1024 1024" version="1.1">
<g id="surface1">
<path style=" stroke:none;fill-rule:nonzero;fill:rgb(0%,0%,0%);fill-opacity:1;" d="M 267.703125 552.039062 L 267.464844 468.414062 L 251.550781 468.414062 L 220.753906 520.375 L 189.472656 468.414062 L 173.464844 468.414062 L 173.464844 552.039062 L 191.625 552.039062 L 191.625 502.9375 L 216.097656 543.199219 L 224.816406 543.199219 L 249.40625 501.863281 L 249.527344 552.039062 Z M 319.808594 498.871094 L 313 489.320312 L 306.433594 494.214844 L 306.433594 463.390625 L 287.792969 463.390625 L 287.792969 508.3125 L 274.296875 518.472656 L 281.222656 527.785156 L 287.792969 522.886719 L 287.792969 552.039062 L 306.433594 552.039062 L 306.433594 508.910156 Z M 355.886719 552.992188 C 376.320312 552.992188 391.128906 539.257812 391.128906 519.902344 C 391.128906 500.542969 376.320312 486.808594 355.886719 486.808594 C 335.457031 486.808594 320.527344 500.542969 320.527344 519.902344 C 320.527344 539.257812 335.457031 552.992188 355.886719 552.992188 Z M 355.886719 537.703125 C 346.566406 537.703125 339.398438 531.015625 339.398438 519.902344 C 339.398438 508.792969 346.566406 502.105469 355.886719 502.105469 C 365.207031 502.105469 372.257812 508.792969 372.257812 519.902344 C 372.257812 531.015625 365.207031 537.703125 355.886719 537.703125 Z M 450.382812 463.390625 L 450.382812 494.574219 C 445.726562 489.320312 439.039062 486.808594 431.152344 486.808594 C 412.992188 486.808594 399.015625 499.710938 399.015625 519.902344 C 399.015625 540.089844 412.992188 552.992188 431.152344 552.992188 C 439.753906 552.992188 446.566406 550.246094 451.222656 544.632812 L 451.222656 552.039062 L 469.023438 552.039062 L 469.023438 463.390625 Z M 434.375 537.703125 C 425.0625 537.703125 417.894531 531.015625 417.894531 519.902344 C 417.894531 508.792969 425.0625 502.105469 434.375 502.105469 C 443.574219 502.105469 450.742188 508.792969 450.742188 519.902344 C 450.742188 531.015625 443.574219 537.703125 434.375 537.703125 Z M 505.34375 537.703125 L 538.078125 498.992188 L 538.078125 487.769531 L 482.640625 487.769531 L 482.640625 502.105469 L 514.542969 502.105469 L 481.808594 540.808594 L 481.808594 552.039062 L 539.152344 552.039062 L 539.152344 537.703125 Z M 560.414062 478.808594 C 567.34375 478.808594 572 474.265625 572 468.054688 C 572 462.320312 567.34375 458.015625 560.414062 458.015625 C 553.488281 458.015625 548.832031 462.558594 548.832031 468.414062 C 548.832031 474.265625 553.488281 478.808594 560.414062 478.808594 Z M 551.097656 552.039062 L 569.734375 552.039062 L 569.734375 487.769531 L 551.097656 487.769531 Z M 650.015625 520.144531 C 650.015625 499.472656 635.441406 486.808594 616.566406 486.808594 C 596.96875 486.808594 582.28125 500.671875 582.28125 519.902344 C 582.28125 539.015625 596.734375 552.992188 618.953125 552.992188 C 630.542969 552.992188 639.503906 549.40625 645.472656 542.601562 L 635.558594 531.847656 C 631.144531 536.03125 626.238281 538.054688 619.433594 538.054688 C 609.640625 538.054688 602.824219 533.160156 601.03125 525.160156 L 649.65625 525.160156 C 649.777344 523.609375 650.015625 521.574219 650.015625 520.144531 Z M 616.679688 500.902344 C 625.046875 500.902344 631.144531 506.167969 632.457031 514.289062 L 600.800781 514.289062 C 602.113281 506.039062 608.199219 500.902344 616.679688 500.902344 Z M 686.097656 478.929688 C 691.953125 478.929688 696.136719 474.625 696.136719 468.769531 C 696.136719 463.03125 691.953125 458.734375 686.097656 458.734375 C 680.238281 458.734375 676.0625 463.03125 676.0625 468.769531 C 676.0625 474.625 680.238281 478.929688 686.097656 478.929688 Z M 680.960938 537.703125 L 713.695312 498.992188 L 713.695312 487.769531 L 658.257812 487.769531 L 658.257812 502.105469 L 690.160156 502.105469 L 657.425781 540.808594 L 657.425781 552.039062 L 714.769531 552.039062 L 714.769531 537.703125 Z M 756.464844 552.992188 C 776.886719 552.992188 791.703125 539.257812 791.703125 519.902344 C 791.703125 500.542969 776.886719 486.808594 756.464844 486.808594 C 736.03125 486.808594 721.097656 500.542969 721.097656 519.902344 C 721.097656 539.257812 736.03125 552.992188 756.464844 552.992188 Z M 756.464844 537.703125 C 747.144531 537.703125 739.976562 531.015625 739.976562 519.902344 C 739.976562 508.792969 747.144531 502.105469 756.464844 502.105469 C 765.785156 502.105469 772.832031 508.792969 772.832031 519.902344 C 772.832031 531.015625 765.785156 537.703125 756.464844 537.703125 Z M 889.070312 487.769531 L 873.425781 531.246094 L 858.128906 487.769531 L 842.359375 487.769531 L 826.59375 531.246094 L 811.414062 487.769531 L 793.855469 487.769531 L 817.03125 552.039062 L 834.953125 552.039062 L 849.886719 512.136719 L 864.34375 552.039062 L 882.265625 552.039062 L 905.558594 487.769531 Z M 975.449219 520.144531 C 975.449219 499.472656 960.871094 486.808594 942 486.808594 C 922.398438 486.808594 907.710938 500.671875 907.710938 519.902344 C 907.710938 539.015625 922.167969 552.992188 944.382812 552.992188 C 955.976562 552.992188 964.9375 549.40625 970.902344 542.601562 L 960.992188 531.847656 C 956.574219 536.03125 951.671875 538.054688 944.863281 538.054688 C 935.070312 538.054688 928.257812 533.160156 926.464844 525.160156 L 975.089844 525.160156 C 975.207031 523.609375 975.449219 521.574219 975.449219 520.144531 Z M 942.113281 500.902344 C 950.480469 500.902344 956.574219 506.167969 957.886719 514.289062 L 926.222656 514.289062 C 927.542969 506.039062 933.632812 500.902344 942.113281 500.902344 Z M 942.113281 500.902344 "/>
<path style=" stroke:none;fill-rule:nonzero;fill:rgb(0%,0%,0%);fill-opacity:1;" d="M 177.785156 590.128906 L 177.785156 600.351562 L 174.488281 600.351562 L 174.488281 575.863281 L 181.398438 575.863281 C 182.953125 575.863281 184.289062 576.023438 185.40625 576.335938 C 186.535156 576.648438 187.472656 577.097656 188.207031 577.6875 C 188.9375 578.28125 189.480469 579 189.832031 579.832031 C 190.183594 580.671875 190.359375 581.609375 190.359375 582.648438 C 190.359375 583.511719 190.222656 584.320312 189.953125 585.070312 C 189.679688 585.824219 189.289062 586.503906 188.769531 587.097656 C 188.246094 587.695312 187.617188 588.207031 186.871094 588.632812 C 186.128906 589.046875 185.28125 589.367188 184.335938 589.585938 C 184.742188 589.824219 185.113281 590.167969 185.425781 590.625 L 192.558594 600.351562 L 189.625 600.351562 C 189.023438 600.351562 188.574219 600.121094 188.296875 599.65625 L 181.945312 590.894531 C 181.753906 590.625 181.542969 590.433594 181.3125 590.3125 C 181.089844 590.191406 180.742188 590.128906 180.296875 590.128906 Z M 177.785156 587.703125 L 181.246094 587.703125 C 182.214844 587.703125 183.0625 587.59375 183.800781 587.359375 C 184.535156 587.128906 185.152344 586.800781 185.648438 586.367188 C 186.136719 585.945312 186.511719 585.441406 186.761719 584.847656 C 187.007812 584.257812 187.136719 583.601562 187.136719 582.886719 C 187.136719 581.433594 186.65625 580.335938 185.695312 579.601562 C 184.734375 578.863281 183.304688 578.488281 181.398438 578.488281 L 177.785156 578.488281 Z M 226.792969 600.335938 L 225.441406 600.335938 C 225.144531 600.335938 224.902344 600.289062 224.726562 600.199219 C 224.542969 600.113281 224.425781 599.910156 224.367188 599.617188 L 224.023438 598.007812 C 223.566406 598.414062 223.128906 598.785156 222.695312 599.105469 C 222.265625 599.441406 221.808594 599.710938 221.328125 599.9375 C 220.847656 600.152344 220.34375 600.328125 219.800781 600.441406 C 219.265625 600.550781 218.664062 600.609375 218 600.609375 C 217.328125 600.609375 216.703125 600.511719 216.121094 600.328125 C 215.527344 600.136719 215.015625 599.855469 214.585938 599.480469 C 214.152344 599.105469 213.816406 598.625 213.558594 598.039062 C 213.304688 597.472656 213.167969 596.785156 213.167969 596 C 213.167969 595.304688 213.359375 594.648438 213.734375 594.015625 C 214.113281 593.375 214.71875 592.816406 215.550781 592.320312 C 216.390625 591.832031 217.480469 591.425781 218.839844 591.113281 C 220.191406 590.800781 221.847656 590.640625 223.800781 590.640625 L 223.800781 589.28125 C 223.800781 587.9375 223.519531 586.910156 222.945312 586.222656 C 222.367188 585.527344 221.511719 585.183594 220.390625 585.183594 C 219.648438 585.183594 219.03125 585.273438 218.519531 585.464844 C 218.015625 585.648438 217.574219 585.855469 217.207031 586.089844 C 216.839844 586.320312 216.519531 586.535156 216.257812 586.71875 C 215.984375 586.910156 215.71875 587.007812 215.457031 587.007812 C 215.257812 587.007812 215.078125 586.953125 214.921875 586.847656 C 214.769531 586.734375 214.640625 586.609375 214.550781 586.449219 L 214.007812 585.496094 C 214.960938 584.566406 215.992188 583.871094 217.097656 583.40625 C 218.199219 582.953125 219.425781 582.726562 220.769531 582.726562 C 221.734375 582.726562 222.59375 582.886719 223.34375 583.199219 C 224.097656 583.519531 224.726562 583.960938 225.230469 584.535156 C 225.753906 585.105469 226.136719 585.792969 226.398438 586.609375 C 226.65625 587.414062 226.792969 588.304688 226.792969 589.265625 Z M 218.902344 598.457031 C 219.441406 598.457031 219.929688 598.40625 220.375 598.296875 C 220.816406 598.191406 221.238281 598.039062 221.632812 597.847656 C 222.023438 597.648438 222.398438 597.414062 222.761719 597.128906 C 223.113281 596.847656 223.464844 596.527344 223.800781 596.167969 L 223.800781 592.59375 C 222.398438 592.59375 221.214844 592.679688 220.230469 592.855469 C 219.257812 593.03125 218.464844 593.257812 217.847656 593.550781 C 217.230469 593.832031 216.792969 594.167969 216.511719 594.558594 C 216.230469 594.945312 216.089844 595.375 216.089844 595.855469 C 216.089844 596.3125 216.160156 596.710938 216.3125 597.039062 C 216.457031 597.367188 216.65625 597.640625 216.902344 597.847656 C 217.160156 598.0625 217.457031 598.214844 217.792969 598.3125 C 218.136719 598.40625 218.503906 598.457031 218.902344 598.457031 Z M 262.007812 600.335938 C 261.574219 600.335938 261.304688 600.128906 261.183594 599.703125 L 260.910156 597.609375 C 260.175781 598.503906 259.335938 599.222656 258.382812 599.761719 C 257.433594 600.304688 256.34375 600.574219 255.113281 600.574219 C 254.121094 600.574219 253.222656 600.382812 252.414062 600 C 251.609375 599.625 250.921875 599.0625 250.351562 598.320312 C 249.785156 597.574219 249.34375 596.65625 249.03125 595.550781 C 248.726562 594.449219 248.574219 593.175781 248.574219 591.734375 C 248.574219 590.464844 248.742188 589.28125 249.089844 588.175781 C 249.433594 587.078125 249.921875 586.128906 250.566406 585.320312 C 251.207031 584.511719 251.992188 583.878906 252.910156 583.414062 C 253.832031 582.960938 254.878906 582.726562 256.046875 582.726562 C 257.113281 582.726562 258.015625 582.902344 258.761719 583.265625 C 259.519531 583.625 260.183594 584.121094 260.777344 584.769531 L 260.777344 575.175781 L 263.816406 575.175781 L 263.816406 600.335938 Z M 256.121094 598.121094 C 257.113281 598.121094 257.984375 597.886719 258.726562 597.441406 C 259.472656 596.976562 260.152344 596.335938 260.777344 595.503906 L 260.777344 587.128906 C 260.222656 586.382812 259.617188 585.855469 258.945312 585.550781 C 258.28125 585.246094 257.542969 585.097656 256.734375 585.097656 C 255.121094 585.097656 253.878906 585.671875 253.007812 586.824219 C 252.152344 587.976562 251.710938 589.617188 251.710938 591.742188 C 251.710938 592.871094 251.816406 593.839844 252.007812 594.640625 C 252.199219 595.441406 252.488281 596.105469 252.855469 596.625 C 253.230469 597.136719 253.695312 597.519531 254.238281 597.761719 C 254.785156 598 255.414062 598.121094 256.121094 598.121094 Z M 292.433594 605.457031 C 292.328125 605.6875 292.199219 605.863281 292.046875 606 C 291.894531 606.136719 291.65625 606.207031 291.335938 606.207031 L 289.089844 606.207031 L 292.238281 599.449219 L 285.113281 583.046875 L 287.734375 583.046875 C 288 583.046875 288.199219 583.121094 288.351562 583.246094 C 288.496094 583.375 288.609375 583.527344 288.671875 583.6875 L 293.296875 594.710938 C 293.398438 594.96875 293.496094 595.222656 293.566406 595.472656 C 293.640625 595.726562 293.703125 595.992188 293.761719 596.246094 C 293.839844 595.992188 293.921875 595.726562 294 595.472656 C 294.078125 595.222656 294.167969 594.960938 294.273438 594.695312 L 298.761719 583.6875 C 298.832031 583.503906 298.953125 583.351562 299.113281 583.230469 C 299.28125 583.113281 299.457031 583.046875 299.648438 583.046875 L 302.070312 583.046875 Z M 353.574219 591.535156 C 353.734375 591.816406 353.871094 592.105469 353.992188 592.40625 C 354.113281 592.703125 354.230469 593.015625 354.34375 593.320312 C 354.457031 593 354.574219 592.695312 354.695312 592.40625 C 354.824219 592.113281 354.96875 591.816406 355.128906 591.519531 L 363.40625 576.425781 C 363.550781 576.167969 363.703125 576.007812 363.863281 575.953125 C 364.023438 575.886719 364.257812 575.863281 364.542969 575.863281 L 366.984375 575.863281 L 366.984375 600.335938 L 364.089844 600.335938 L 364.089844 582.367188 C 364.089844 582.128906 364.097656 581.871094 364.105469 581.601562 C 364.121094 581.320312 364.136719 581.046875 364.152344 580.761719 L 355.777344 596.054688 C 355.488281 596.566406 355.097656 596.824219 354.585938 596.824219 L 354.105469 596.824219 C 353.59375 596.824219 353.191406 596.566406 352.910156 596.054688 L 344.34375 580.710938 C 344.375 581.007812 344.40625 581.296875 344.425781 581.585938 C 344.441406 581.863281 344.441406 582.128906 344.441406 582.367188 L 344.441406 600.335938 L 341.542969 600.335938 L 341.542969 575.863281 L 343.984375 575.863281 C 344.28125 575.863281 344.503906 575.886719 344.664062 575.953125 C 344.824219 576.007812 344.976562 576.167969 345.128906 576.425781 Z M 394.289062 583.03125 L 394.289062 600.335938 L 391.246094 600.335938 L 391.246094 583.03125 Z M 394.96875 577.601562 C 394.96875 577.894531 394.910156 578.175781 394.792969 578.433594 C 394.671875 578.6875 394.511719 578.910156 394.320312 579.113281 C 394.121094 579.3125 393.878906 579.472656 393.625 579.585938 C 393.359375 579.695312 393.078125 579.753906 392.785156 579.753906 C 392.488281 579.753906 392.214844 579.695312 391.960938 579.585938 C 391.703125 579.472656 391.480469 579.3125 391.28125 579.113281 C 391.078125 578.910156 390.921875 578.6875 390.808594 578.433594 C 390.695312 578.175781 390.632812 577.894531 390.632812 577.601562 C 390.632812 577.3125 390.695312 577.023438 390.808594 576.761719 C 390.921875 576.488281 391.078125 576.257812 391.28125 576.054688 C 391.480469 575.855469 391.703125 575.703125 391.960938 575.59375 C 392.214844 575.472656 392.488281 575.414062 392.785156 575.414062 C 393.078125 575.414062 393.359375 575.472656 393.625 575.59375 C 393.878906 575.703125 394.121094 575.855469 394.320312 576.054688 C 394.511719 576.257812 394.671875 576.488281 394.792969 576.761719 C 394.910156 577.023438 394.96875 577.3125 394.96875 577.601562 Z M 430.785156 600.335938 L 429.441406 600.335938 C 429.144531 600.335938 428.902344 600.289062 428.71875 600.199219 C 428.535156 600.113281 428.414062 599.910156 428.359375 599.617188 L 428.015625 598.007812 C 427.566406 598.414062 427.121094 598.785156 426.6875 599.105469 C 426.257812 599.441406 425.800781 599.710938 425.328125 599.9375 C 424.847656 600.152344 424.335938 600.328125 423.800781 600.441406 C 423.257812 600.550781 422.65625 600.609375 422 600.609375 C 421.320312 600.609375 420.695312 600.511719 420.113281 600.328125 C 419.527344 600.136719 419.015625 599.855469 418.585938 599.480469 C 418.152344 599.105469 417.808594 598.625 417.550781 598.039062 C 417.296875 597.472656 417.167969 596.785156 417.167969 596 C 417.167969 595.304688 417.351562 594.648438 417.726562 594.015625 C 418.105469 593.375 418.710938 592.816406 419.550781 592.320312 C 420.382812 591.832031 421.480469 591.425781 422.832031 591.113281 C 424.183594 590.800781 425.839844 590.640625 427.800781 590.640625 L 427.800781 589.28125 C 427.800781 587.9375 427.511719 586.910156 426.945312 586.222656 C 426.367188 585.527344 425.511719 585.183594 424.382812 585.183594 C 423.648438 585.183594 423.023438 585.273438 422.519531 585.464844 C 422.015625 585.648438 421.574219 585.855469 421.207031 586.089844 C 420.832031 586.320312 420.511719 586.535156 420.246094 586.71875 C 419.984375 586.910156 419.710938 587.007812 419.457031 587.007812 C 419.246094 587.007812 419.070312 586.953125 418.921875 586.847656 C 418.769531 586.734375 418.640625 586.609375 418.550781 586.449219 L 418 585.496094 C 418.960938 584.566406 419.992188 583.871094 421.089844 583.40625 C 422.191406 582.953125 423.414062 582.726562 424.761719 582.726562 C 425.726562 582.726562 426.585938 582.886719 427.335938 583.199219 C 428.089844 583.519531 428.71875 583.960938 429.230469 584.535156 C 429.742188 585.105469 430.128906 585.792969 430.390625 586.609375 C 430.65625 587.414062 430.785156 588.304688 430.785156 589.265625 Z M 422.902344 598.457031 C 423.433594 598.457031 423.921875 598.40625 424.367188 598.296875 C 424.808594 598.191406 425.230469 598.039062 425.625 597.847656 C 426.015625 597.648438 426.390625 597.414062 426.753906 597.128906 C 427.113281 596.847656 427.457031 596.527344 427.800781 596.167969 L 427.800781 592.59375 C 426.398438 592.59375 425.207031 592.679688 424.230469 592.855469 C 423.257812 593.03125 422.457031 593.257812 421.839844 593.550781 C 421.222656 593.832031 420.785156 594.167969 420.503906 594.558594 C 420.222656 594.945312 420.089844 595.375 420.089844 595.855469 C 420.089844 596.3125 420.160156 596.710938 420.304688 597.039062 C 420.457031 597.367188 420.65625 597.640625 420.902344 597.847656 C 421.152344 598.0625 421.449219 598.214844 421.792969 598.3125 C 422.128906 598.40625 422.503906 598.457031 422.902344 598.457031 Z M 463.726562 585.894531 C 463.601562 586.152344 463.382812 586.273438 463.105469 586.273438 C 462.929688 586.273438 462.734375 586.207031 462.519531 586.089844 C 462.304688 585.960938 462.039062 585.816406 461.726562 585.664062 C 461.414062 585.511719 461.039062 585.367188 460.609375 585.238281 C 460.175781 585.105469 459.664062 585.046875 459.070312 585.046875 C 458.558594 585.046875 458.105469 585.105469 457.6875 585.238281 C 457.28125 585.367188 456.9375 585.550781 456.648438 585.777344 C 456.351562 586.007812 456.128906 586.273438 455.976562 586.566406 C 455.824219 586.871094 455.742188 587.199219 455.742188 587.550781 C 455.742188 588 455.871094 588.367188 456.128906 588.664062 C 456.382812 588.960938 456.726562 589.214844 457.144531 589.433594 C 457.566406 589.648438 458.039062 589.839844 458.574219 590 C 459.113281 590.167969 459.664062 590.34375 460.230469 590.527344 C 460.792969 590.71875 461.335938 590.929688 461.871094 591.152344 C 462.40625 591.382812 462.886719 591.664062 463.304688 592.007812 C 463.726562 592.351562 464.0625 592.769531 464.328125 593.257812 C 464.585938 593.753906 464.703125 594.351562 464.703125 595.046875 C 464.703125 595.839844 464.558594 596.574219 464.28125 597.257812 C 463.992188 597.929688 463.574219 598.511719 463.015625 599.007812 C 462.457031 599.503906 461.777344 599.894531 460.96875 600.183594 C 460.160156 600.464844 459.222656 600.609375 458.167969 600.609375 C 456.960938 600.609375 455.871094 600.414062 454.894531 600.03125 C 453.910156 599.640625 453.078125 599.144531 452.398438 598.542969 L 453.121094 597.359375 C 453.207031 597.207031 453.3125 597.097656 453.441406 597.007812 C 453.566406 596.929688 453.726562 596.886719 453.9375 596.886719 C 454.144531 596.886719 454.359375 596.96875 454.585938 597.128906 C 454.816406 597.289062 455.089844 597.464844 455.414062 597.65625 C 455.734375 597.847656 456.128906 598.023438 456.59375 598.183594 C 457.054688 598.34375 457.632812 598.425781 458.320312 598.425781 C 458.910156 598.425781 459.433594 598.34375 459.871094 598.191406 C 460.320312 598.039062 460.6875 597.832031 460.984375 597.566406 C 461.28125 597.3125 461.503906 597.007812 461.648438 596.664062 C 461.785156 596.328125 461.855469 595.953125 461.855469 595.566406 C 461.855469 595.097656 461.726562 594.695312 461.472656 594.382812 C 461.214844 594.070312 460.878906 593.808594 460.457031 593.585938 C 460.03125 593.351562 459.558594 593.160156 459.015625 593 C 458.472656 592.832031 457.921875 592.664062 457.359375 592.480469 C 456.800781 592.296875 456.246094 592.089844 455.703125 591.855469 C 455.160156 591.625 454.679688 591.328125 454.257812 590.976562 C 453.839844 590.625 453.503906 590.183594 453.246094 589.671875 C 452.992188 589.152344 452.863281 588.519531 452.863281 587.785156 C 452.863281 587.121094 453 586.480469 453.273438 585.878906 C 453.542969 585.265625 453.945312 584.734375 454.464844 584.273438 C 454.992188 583.808594 455.632812 583.441406 456.390625 583.167969 C 457.160156 582.894531 458.023438 582.761719 459.007812 582.761719 C 460.144531 582.761719 461.167969 582.9375 462.070312 583.296875 C 462.976562 583.664062 463.753906 584.160156 464.414062 584.785156 Z M 492.328125 600.609375 C 490.960938 600.609375 489.921875 600.222656 489.183594 599.464844 C 488.449219 598.703125 488.078125 597.609375 488.078125 596.167969 L 488.078125 585.574219 L 486 585.574219 C 485.816406 585.574219 485.664062 585.519531 485.535156 585.414062 C 485.40625 585.304688 485.34375 585.144531 485.34375 584.910156 L 485.34375 583.695312 L 488.183594 583.335938 L 488.878906 577.992188 C 488.902344 577.824219 488.976562 577.679688 489.105469 577.574219 C 489.222656 577.472656 489.382812 577.414062 489.585938 577.414062 L 491.121094 577.414062 L 491.121094 583.375 L 496.0625 583.375 L 496.0625 585.574219 L 491.121094 585.574219 L 491.121094 595.96875 C 491.121094 596.695312 491.296875 597.230469 491.648438 597.59375 C 492 597.945312 492.457031 598.121094 493.007812 598.121094 C 493.328125 598.121094 493.609375 598.070312 493.839844 597.984375 C 494.070312 597.902344 494.273438 597.808594 494.449219 597.703125 C 494.617188 597.609375 494.761719 597.511719 494.878906 597.425781 C 495 597.335938 495.105469 597.296875 495.191406 597.296875 C 495.351562 597.296875 495.496094 597.390625 495.625 597.59375 L 496.511719 599.0625 C 495.984375 599.542969 495.351562 599.921875 494.617188 600.199219 C 493.878906 600.472656 493.113281 600.609375 492.328125 600.609375 Z M 533.792969 583.03125 L 536.183594 583.03125 C 536.433594 583.03125 536.640625 583.097656 536.800781 583.214844 C 536.960938 583.34375 537.0625 583.488281 537.121094 583.664062 L 540.433594 594.800781 C 540.527344 595.207031 540.609375 595.609375 540.6875 595.992188 C 540.769531 596.367188 540.839844 596.753906 540.894531 597.144531 C 540.984375 596.753906 541.089844 596.367188 541.199219 595.992188 C 541.3125 595.609375 541.433594 595.207031 541.558594 594.800781 L 545.214844 583.59375 C 545.265625 583.425781 545.367188 583.28125 545.511719 583.167969 C 545.65625 583.054688 545.832031 583 546.046875 583 L 547.359375 583 C 547.59375 583 547.777344 583.054688 547.929688 583.167969 C 548.070312 583.28125 548.175781 583.425781 548.230469 583.59375 L 551.800781 594.800781 C 551.929688 595.199219 552.039062 595.59375 552.136719 595.976562 C 552.230469 596.367188 552.320312 596.742188 552.414062 597.128906 C 552.472656 596.742188 552.542969 596.351562 552.632812 595.945312 C 552.726562 595.535156 552.824219 595.152344 552.929688 594.800781 L 556.304688 583.664062 C 556.359375 583.480469 556.472656 583.328125 556.632812 583.214844 C 556.792969 583.097656 556.976562 583.03125 557.191406 583.03125 L 559.480469 583.03125 L 553.878906 600.335938 L 551.472656 600.335938 C 551.175781 600.335938 550.976562 600.144531 550.863281 599.753906 L 547.039062 588.015625 C 546.945312 587.761719 546.871094 587.496094 546.816406 587.222656 C 546.761719 586.953125 546.703125 586.695312 546.648438 586.433594 C 546.59375 586.695312 546.535156 586.960938 546.472656 587.230469 C 546.414062 587.511719 546.34375 587.777344 546.257812 588.039062 L 542.375 599.753906 C 542.257812 600.144531 542.023438 600.335938 541.679688 600.335938 L 539.390625 600.335938 Z M 602.824219 600.335938 L 599.511719 600.335938 L 599.511719 575.863281 L 602.824219 575.863281 Z M 627.34375 600.335938 L 627.34375 583.03125 L 629.152344 583.03125 C 629.585938 583.03125 629.855469 583.238281 629.96875 583.664062 L 630.207031 585.542969 C 630.960938 584.710938 631.800781 584.039062 632.726562 583.527344 C 633.65625 583.015625 634.726562 582.761719 635.945312 582.761719 C 636.886719 582.761719 637.71875 582.921875 638.449219 583.230469 C 639.167969 583.542969 639.769531 583.984375 640.257812 584.558594 C 640.734375 585.136719 641.105469 585.832031 641.351562 586.640625 C 641.601562 587.449219 641.726562 588.335938 641.726562 589.320312 L 641.726562 600.335938 L 638.6875 600.335938 L 638.6875 589.320312 C 638.6875 588.007812 638.390625 586.992188 637.800781 586.273438 C 637.199219 585.542969 636.28125 585.183594 635.054688 585.183594 C 634.160156 585.183594 633.320312 585.398438 632.542969 585.832031 C 631.761719 586.265625 631.039062 586.855469 630.375 587.59375 L 630.375 600.335938 Z M 670 600.609375 C 668.640625 600.609375 667.59375 600.222656 666.855469 599.464844 C 666.121094 598.703125 665.753906 597.609375 665.753906 596.167969 L 665.753906 585.574219 L 663.671875 585.574219 C 663.488281 585.574219 663.335938 585.519531 663.207031 585.414062 C 663.078125 585.304688 663.015625 585.144531 663.015625 584.910156 L 663.015625 583.695312 L 665.855469 583.335938 L 666.550781 577.992188 C 666.574219 577.824219 666.648438 577.679688 666.777344 577.574219 C 666.894531 577.472656 667.054688 577.414062 667.257812 577.414062 L 668.792969 577.414062 L 668.792969 583.375 L 673.734375 583.375 L 673.734375 585.574219 L 668.792969 585.574219 L 668.792969 595.96875 C 668.792969 596.695312 668.96875 597.230469 669.320312 597.59375 C 669.671875 597.945312 670.128906 598.121094 670.679688 598.121094 C 671 598.121094 671.28125 598.070312 671.511719 597.984375 C 671.742188 597.902344 671.945312 597.808594 672.121094 597.703125 C 672.289062 597.609375 672.441406 597.511719 672.550781 597.425781 C 672.679688 597.335938 672.777344 597.296875 672.863281 597.296875 C 673.023438 597.296875 673.167969 597.390625 673.296875 597.59375 L 674.183594 599.0625 C 673.65625 599.542969 673.023438 599.921875 672.289062 600.199219 C 671.550781 600.472656 670.785156 600.609375 670 600.609375 Z M 702.777344 582.761719 C 703.816406 582.761719 704.769531 582.9375 705.648438 583.28125 C 706.519531 583.632812 707.28125 584.128906 707.910156 584.785156 C 708.550781 585.441406 709.046875 586.246094 709.40625 587.207031 C 709.769531 588.175781 709.945312 589.273438 709.945312 590.503906 C 709.945312 590.984375 709.894531 591.304688 709.792969 591.464844 C 709.6875 591.625 709.496094 591.703125 709.207031 591.703125 L 697.710938 591.703125 C 697.726562 592.792969 697.878906 593.753906 698.152344 594.558594 C 698.425781 595.367188 698.800781 596.039062 699.28125 596.585938 C 699.761719 597.128906 700.328125 597.535156 700.984375 597.800781 C 701.648438 598.0625 702.382812 598.199219 703.207031 598.199219 C 703.96875 598.199219 704.625 598.113281 705.175781 597.9375 C 705.726562 597.761719 706.199219 597.566406 706.601562 597.359375 C 707 597.152344 707.335938 596.96875 707.601562 596.792969 C 707.871094 596.609375 708.097656 596.527344 708.289062 596.527344 C 708.542969 596.527344 708.734375 596.625 708.871094 596.816406 L 709.71875 597.929688 C 709.351562 598.375 708.894531 598.769531 708.375 599.105469 C 707.847656 599.441406 707.296875 599.71875 706.695312 599.9375 C 706.105469 600.144531 705.480469 600.304688 704.839844 600.414062 C 704.207031 600.527344 703.574219 600.574219 702.953125 600.574219 C 701.753906 600.574219 700.65625 600.367188 699.648438 599.96875 C 698.640625 599.558594 697.777344 598.976562 697.039062 598.191406 C 696.304688 597.414062 695.726562 596.449219 695.320312 595.296875 C 694.910156 594.144531 694.703125 592.832031 694.703125 591.328125 C 694.703125 590.121094 694.894531 589 695.265625 587.953125 C 695.632812 586.902344 696.160156 585.992188 696.855469 585.230469 C 697.550781 584.457031 698.398438 583.855469 699.398438 583.414062 C 700.398438 582.984375 701.527344 582.761719 702.777344 582.761719 Z M 702.847656 585.007812 C 701.375 585.007812 700.222656 585.433594 699.382812 586.28125 C 698.535156 587.121094 698.015625 588.296875 697.808594 589.792969 L 707.214844 589.792969 C 707.214844 589.078125 707.121094 588.441406 706.929688 587.855469 C 706.726562 587.273438 706.449219 586.769531 706.070312 586.351562 C 705.695312 585.921875 705.238281 585.59375 704.695312 585.359375 C 704.160156 585.128906 703.542969 585.007812 702.847656 585.007812 Z M 732.265625 600.335938 L 732.265625 583.03125 L 734 583.03125 C 734.328125 583.03125 734.558594 583.097656 734.6875 583.230469 C 734.808594 583.359375 734.894531 583.59375 734.945312 583.921875 L 735.144531 586.785156 C 735.734375 585.503906 736.472656 584.511719 737.34375 583.800781 C 738.207031 583.078125 739.230469 582.726562 740.398438 582.726562 C 740.878906 582.726562 741.3125 582.785156 741.695312 582.886719 C 742.089844 583 742.449219 583.152344 742.777344 583.351562 L 742.382812 585.625 C 742.304688 585.910156 742.128906 586.054688 741.847656 586.054688 C 741.695312 586.054688 741.449219 585.992188 741.121094 585.886719 C 740.792969 585.777344 740.328125 585.726562 739.734375 585.726562 C 738.679688 585.726562 737.792969 586.046875 737.089844 586.6875 C 736.375 587.335938 735.777344 588.265625 735.296875 589.488281 L 735.296875 600.335938 Z M 764.457031 600.335938 L 764.457031 583.03125 L 766.273438 583.03125 C 766.703125 583.03125 766.976562 583.238281 767.089844 583.664062 L 767.328125 585.542969 C 768.078125 584.710938 768.921875 584.039062 769.847656 583.527344 C 770.777344 583.015625 771.839844 582.761719 773.0625 582.761719 C 774 582.761719 774.839844 582.921875 775.558594 583.230469 C 776.289062 583.542969 776.886719 583.984375 777.375 584.558594 C 777.855469 585.136719 778.214844 585.832031 778.472656 586.640625 C 778.71875 587.449219 778.847656 588.335938 778.847656 589.320312 L 778.847656 600.335938 L 775.808594 600.335938 L 775.808594 589.320312 C 775.808594 588.007812 775.511719 586.992188 774.910156 586.273438 C 774.320312 585.542969 773.398438 585.183594 772.175781 585.183594 C 771.273438 585.183594 770.441406 585.398438 769.65625 585.832031 C 768.878906 586.265625 768.160156 586.855469 767.496094 587.59375 L 767.496094 600.335938 Z M 808.71875 582.761719 C 809.761719 582.761719 810.710938 582.9375 811.59375 583.28125 C 812.464844 583.632812 813.222656 584.128906 813.855469 584.785156 C 814.496094 585.441406 815 586.246094 815.359375 587.207031 C 815.710938 588.175781 815.886719 589.273438 815.886719 590.503906 C 815.886719 590.984375 815.839844 591.304688 815.734375 591.464844 C 815.632812 591.625 815.441406 591.703125 815.160156 591.703125 L 803.65625 591.703125 C 803.679688 592.792969 803.824219 593.753906 804.097656 594.558594 C 804.367188 595.367188 804.742188 596.039062 805.222656 596.585938 C 805.703125 597.128906 806.273438 597.535156 806.9375 597.800781 C 807.59375 598.0625 808.328125 598.199219 809.152344 598.199219 C 809.910156 598.199219 810.574219 598.113281 811.128906 597.9375 C 811.671875 597.761719 812.144531 597.566406 812.542969 597.359375 C 812.945312 597.152344 813.28125 596.96875 813.542969 596.792969 C 813.816406 596.609375 814.039062 596.527344 814.230469 596.527344 C 814.488281 596.527344 814.679688 596.625 814.816406 596.816406 L 815.671875 597.929688 C 815.296875 598.375 814.847656 598.769531 814.320312 599.105469 C 813.800781 599.441406 813.238281 599.71875 812.640625 599.9375 C 812.046875 600.144531 811.425781 600.304688 810.785156 600.414062 C 810.152344 600.527344 809.519531 600.574219 808.894531 600.574219 C 807.695312 600.574219 806.601562 600.367188 805.59375 599.96875 C 804.59375 599.558594 803.71875 598.976562 802.984375 598.191406 C 802.246094 597.414062 801.671875 596.449219 801.265625 595.296875 C 800.855469 594.144531 800.648438 592.832031 800.648438 591.328125 C 800.648438 590.121094 800.839844 589 801.207031 587.953125 C 801.574219 586.902344 802.105469 585.992188 802.800781 585.230469 C 803.496094 584.457031 804.34375 583.855469 805.34375 583.414062 C 806.34375 582.984375 807.472656 582.761719 808.71875 582.761719 Z M 808.792969 585.007812 C 807.328125 585.007812 806.167969 585.433594 805.328125 586.28125 C 804.488281 587.121094 803.960938 588.296875 803.761719 589.792969 L 813.160156 589.792969 C 813.160156 589.078125 813.0625 588.441406 812.871094 587.855469 C 812.679688 587.273438 812.390625 586.769531 812.015625 586.351562 C 811.640625 585.921875 811.183594 585.59375 810.648438 585.359375 C 810.105469 585.128906 809.488281 585.007812 808.792969 585.007812 Z M 850 586.105469 C 849.910156 586.222656 849.816406 586.320312 849.726562 586.390625 C 849.632812 586.464844 849.503906 586.496094 849.335938 586.496094 C 849.160156 586.496094 848.976562 586.425781 848.785156 586.289062 C 848.585938 586.144531 848.328125 585.984375 848.015625 585.816406 C 847.710938 585.640625 847.34375 585.488281 846.902344 585.34375 C 846.464844 585.199219 845.929688 585.128906 845.289062 585.128906 C 844.449219 585.128906 843.703125 585.28125 843.054688 585.585938 C 842.40625 585.886719 841.863281 586.320312 841.425781 586.886719 C 840.984375 587.457031 840.65625 588.144531 840.441406 588.953125 C 840.214844 589.761719 840.105469 590.664062 840.105469 591.664062 C 840.105469 592.710938 840.222656 593.640625 840.457031 594.457031 C 840.695312 595.273438 841.03125 595.953125 841.464844 596.503906 C 841.894531 597.054688 842.425781 597.472656 843.046875 597.769531 C 843.664062 598.054688 844.359375 598.199219 845.136719 598.199219 C 845.871094 598.199219 846.480469 598.113281 846.960938 597.9375 C 847.441406 597.761719 847.839844 597.566406 848.152344 597.351562 C 848.472656 597.136719 848.734375 596.9375 848.945312 596.761719 C 849.144531 596.585938 849.351562 596.496094 849.550781 596.496094 C 849.816406 596.496094 850.007812 596.59375 850.136719 596.785156 L 850.992188 597.894531 C 850.238281 598.824219 849.296875 599.496094 848.175781 599.9375 C 847.046875 600.359375 845.855469 600.574219 844.609375 600.574219 C 843.527344 600.574219 842.519531 600.375 841.601562 599.976562 C 840.671875 599.574219 839.863281 599 839.175781 598.246094 C 838.496094 597.488281 837.960938 596.550781 837.566406 595.449219 C 837.175781 594.34375 836.976562 593.089844 836.976562 591.671875 C 836.976562 590.382812 837.160156 589.199219 837.519531 588.105469 C 837.878906 587.015625 838.398438 586.070312 839.089844 585.28125 C 839.777344 584.488281 840.625 583.863281 841.640625 583.425781 C 842.648438 582.984375 843.808594 582.761719 845.121094 582.761719 C 846.320312 582.761719 847.390625 582.960938 848.328125 583.351562 C 849.265625 583.742188 850.089844 584.296875 850.800781 585.007812 Z M 875.96875 583.03125 L 875.96875 600.335938 L 872.929688 600.335938 L 872.929688 583.03125 Z M 876.648438 577.601562 C 876.648438 577.894531 876.59375 578.175781 876.472656 578.433594 C 876.351562 578.6875 876.191406 578.910156 876 579.113281 C 875.800781 579.3125 875.558594 579.472656 875.304688 579.585938 C 875.039062 579.695312 874.761719 579.753906 874.464844 579.753906 C 874.167969 579.753906 873.894531 579.695312 873.640625 579.585938 C 873.382812 579.472656 873.160156 579.3125 872.960938 579.113281 C 872.761719 578.910156 872.601562 578.6875 872.488281 578.433594 C 872.375 578.175781 872.3125 577.894531 872.3125 577.601562 C 872.3125 577.3125 872.375 577.023438 872.488281 576.761719 C 872.601562 576.488281 872.761719 576.257812 872.960938 576.054688 C 873.160156 575.855469 873.382812 575.703125 873.640625 575.59375 C 873.894531 575.472656 874.167969 575.414062 874.464844 575.414062 C 874.761719 575.414062 875.039062 575.472656 875.304688 575.59375 C 875.558594 575.703125 875.800781 575.855469 876 576.054688 C 876.191406 576.257812 876.351562 576.488281 876.472656 576.761719 C 876.59375 577.023438 876.648438 577.3125 876.648438 577.601562 Z M 906.609375 582.761719 C 907.648438 582.761719 908.601562 582.9375 909.480469 583.28125 C 910.351562 583.632812 911.113281 584.128906 911.742188 584.785156 C 912.382812 585.441406 912.886719 586.246094 913.246094 587.207031 C 913.601562 588.175781 913.777344 589.273438 913.777344 590.503906 C 913.777344 590.984375 913.726562 591.304688 913.625 591.464844 C 913.519531 591.625 913.328125 591.703125 913.046875 591.703125 L 901.542969 591.703125 C 901.566406 592.792969 901.710938 593.753906 901.984375 594.558594 C 902.257812 595.367188 902.632812 596.039062 903.113281 596.585938 C 903.59375 597.128906 904.160156 597.535156 904.824219 597.800781 C 905.480469 598.0625 906.214844 598.199219 907.039062 598.199219 C 907.800781 598.199219 908.464844 598.113281 909.015625 597.9375 C 909.558594 597.761719 910.03125 597.566406 910.433594 597.359375 C 910.832031 597.152344 911.167969 596.96875 911.433594 596.792969 C 911.703125 596.609375 911.929688 596.527344 912.121094 596.527344 C 912.375 596.527344 912.566406 596.625 912.703125 596.816406 L 913.558594 597.929688 C 913.183594 598.375 912.734375 598.769531 912.207031 599.105469 C 911.6875 599.441406 911.128906 599.71875 910.527344 599.9375 C 909.9375 600.144531 909.3125 600.304688 908.671875 600.414062 C 908.039062 600.527344 907.40625 600.574219 906.785156 600.574219 C 905.585938 600.574219 904.488281 600.367188 903.480469 599.96875 C 902.480469 599.558594 901.609375 598.976562 900.871094 598.191406 C 900.136719 597.414062 899.558594 596.449219 899.152344 595.296875 C 898.742188 594.144531 898.535156 592.832031 898.535156 591.328125 C 898.535156 590.121094 898.726562 589 899.097656 587.953125 C 899.464844 586.902344 899.992188 585.992188 900.6875 585.230469 C 901.382812 584.457031 902.230469 583.855469 903.230469 583.414062 C 904.230469 582.984375 905.359375 582.761719 906.609375 582.761719 Z M 906.679688 585.007812 C 905.207031 585.007812 904.054688 585.433594 903.214844 586.28125 C 902.375 587.121094 901.847656 588.296875 901.648438 589.792969 L 911.046875 589.792969 C 911.046875 589.078125 910.953125 588.441406 910.761719 587.855469 C 910.566406 587.273438 910.28125 586.769531 909.902344 586.351562 C 909.527344 585.921875 909.070312 585.59375 908.535156 585.359375 C 907.992188 585.128906 907.375 585.007812 906.679688 585.007812 Z M 906.679688 585.007812 "/>
<path style=" stroke:none;fill-rule:evenodd;fill:rgb(100%,90.980392%,2.745098%);fill-opacity:1;" d="M 155.855469 601.390625 L 155.855469 563.296875 L 53.246094 563.296875 C 53.59375 583.191406 67.863281 598.488281 85.871094 600.960938 C 92.464844 601.863281 148.078125 601.40625 155.855469 601.390625 Z M 155.855469 601.390625 "/>
<path style=" stroke:none;fill-rule:evenodd;fill:rgb(21.568627%,54.509804%,77.254902%);fill-opacity:1;" d="M 155.855469 554.070312 L 155.855469 515.976562 L 53.246094 515.976562 C 53.511719 524.847656 56.839844 535.398438 62.921875 541.335938 C 66.839844 545.160156 67.511719 546.121094 72.65625 549.105469 C 82.960938 555.089844 91.375 554.070312 103.007812 554.070312 Z M 155.855469 554.070312 "/>
<path style=" stroke:none;fill-rule:evenodd;fill:rgb(0%,0%,0%);fill-opacity:1;" d="M 155.550781 506.449219 L 155.855469 468.359375 L 53.246094 468.359375 C 53.585938 488.152344 67.769531 503.449219 85.65625 506 C 92.359375 506.953125 147.496094 506.449219 155.550781 506.449219 Z M 155.550781 506.449219 "/>
</g>
</svg>
